<svg version="1.0" viewBox="0 0 64 64"><path d="M0 23v28h54V23zm2 2h50v24H2z"/><path d="M10 13v9h2v-7h50v24h-7v2h9V13z"/><path d="M9 27v1c0 1.278-.346 1.874-.957 2.31-.611.437-1.654.69-3.043.69H4v12h1c1.389 0 2.432.253 3.043.69.611.436.957 1.032.957 2.31v1h37v-1c0-1.278.376-1.928.89-2.357.516-.43 1.277-.643 2.11-.643h1V31h-1c-.833 0-1.594-.213-2.11-.643-.514-.429-.89-1.08-.89-2.357v-1zm1.797 2H44.19c.204 1.212.649 2.251 1.418 2.893.706.588 1.545.838 2.391.968v8.278c-.846.13-1.685.38-2.39.968-.77.642-1.215 1.68-1.419 2.893H10.797c-.216-1.231-.697-2.302-1.59-2.94-.89-.635-2.008-.866-3.207-.962v-8.196c1.199-.096 2.318-.327 3.207-.963.893-.637 1.374-1.708 1.59-2.939z"/><path d="M27 31c-3.302 0-6 2.698-6 6s2.698 6 6 6 6-2.698 6-6-2.698-6-6-6zm0 2c2.221 0 4 1.779 4 4s-1.779 4-4 4-4-1.779-4-4 1.779-4 4-4z"/></svg>