<svg version="1.0" viewBox="0 0 64 64"><path d="M23 42c0 2.48.983 4.93 2.582 6.805C27.181 50.679 29.445 52 32 52h4v-2h-4c-1.863 0-3.6-.971-4.896-2.492C25.807 45.988 25 43.938 25 42z"/><path d="M33.8 46.4l-1.6 1.2 2.55 3.4-2.55 3.4 1.6 1.2 3-4v-1.2zM30 32v2h4c1.863 0 3.6.971 4.896 2.492C40.193 38.012 41 40.062 41 42h2c0-2.48-.983-4.93-2.582-6.805C38.819 33.321 36.555 32 34 32z"/><path d="M32.2 28.4l-3 4v1.2l3 4 1.6-1.2-2.55-3.4 2.55-3.4z"/><path d="M9 17v47h46V17H20zm2 2h42v43H11z"/><path d="M32 0c-6.063 0-11 4.937-11 11v13h2V11c0-4.983 4.017-9 9-9s9 4.017 9 9v13h2V11c0-6.063-4.937-11-11-11z"/></svg>