<svg version="1.0" viewBox="0 0 64 64"><g fill="none" stroke="#000" stroke-width="2" stroke-miterlimit="10"><path d="M52 62.999v-62H26l-14 14V63l4-2 4 2 4-2 4 2 4-2 4 2 4-2 4 2 4-2z"/><path d="M12 14.999h14v-14"/></g><path d="M22 20v2h20v-2zm-3 5v2h26v-2zm8 2v15.889c-.006.036-.14.864-.523 1.69-.197.42-.451.811-.721 1.058-.27.246-.512.363-.877.363H22v2h2.879c.894 0 1.673-.383 2.225-.887.551-.503.918-1.113 1.187-1.691.538-1.157.697-2.274.697-2.274l.012-.074V27zm8 0v17.105l.021.102s.204.97.926 1.904c.722.935 2.071 1.889 4.05 1.889H42v-2h-2.004c-1.382 0-2.03-.546-2.467-1.111-.419-.543-.52-1.014-.529-1.053V27z"/></svg>