<svg version="1.0" viewBox="0 0 64 64"><path d="M-.375 24l.424 1.309L11.273 60h41.454l11.648-36zm2.75 2h59.25L51.273 58H12.727z"/><path d="M21.072 4.629l-8 20 1.856.742 8-20zm21.856 0l-1.856.742 8 20 1.856-.742zM22 42c0 2.48.983 4.93 2.582 6.805C26.181 50.679 28.445 52 31 52h4v-2h-4c-1.863 0-3.6-.971-4.896-2.492C24.807 45.988 24 43.938 24 42z"/><path d="M32.8 46.4l-1.6 1.2 2.55 3.4-2.55 3.4 1.6 1.2 3-4v-1.2zM29 32v2h4c1.863 0 3.6.971 4.896 2.492C39.193 38.012 40 40.062 40 42h2c0-2.48-.983-4.93-2.582-6.805C37.819 33.321 35.555 32 33 32z"/><path d="M31.2 28.4l-3 4v1.2l3 4 1.6-1.2-2.55-3.4 2.55-3.4z"/></svg>