<svg version="1.0" viewBox="0 0 64 64"><path d="M20 50c-3.854 0-7 3.146-7 7s3.146 7 7 7 7-3.146 7-7-3.146-7-7-7zm0 2c2.773 0 5 2.227 5 5s-2.227 5-5 5-5-2.227-5-5 2.227-5 5-5zm24-2c-3.854 0-7 3.146-7 7s3.146 7 7 7 7-3.146 7-7-3.146-7-7-7zm0 2c2.773 0 5 2.227 5 5s-2.227 5-5 5-5-2.227-5-5 2.227-5 5-5z"/><path d="M26 56v2h12v-2zM0 1v2h9.07l3.932 54.072 1.996-.144L10.93 1z"/><path d="M11 9v2h50.738l-6.545 28.055-42.263 2.947.14 1.996 43.737-3.053L64.26 9z"/><path d="M36 18c-3.661 0-6.794 2.895-7.742 6.188-.958.21-1.781.677-2.29 1.312-.641.803-.968 1.667-.968 2.5 0 1.167.307 2.221 1.043 2.957C26.779 31.693 27.833 32 29 32h14c1.12 0 2.161-.31 2.904-1.033C46.647 30.244 47 29.186 47 28c0-.833-.327-1.697-.969-2.5-.495-.619-1.293-1.072-2.217-1.295-.225-1.741-1.003-3.283-2.285-4.33C40.044 18.662 38.076 18 36 18zm0 2c1.647 0 3.18.538 4.264 1.424C41.348 22.31 42 23.5 42 25v1h1c.667 0 1.111.303 1.469.75.358.447.531 1.083.531 1.25 0 .814-.205 1.256-.49 1.533-.285.277-.743.467-1.51.467H29c-.833 0-1.279-.193-1.543-.457S27 28.833 27 28c0-.167.173-.803.531-1.25.358-.447.802-.75 1.469-.75h.824l.158-.809C30.466 22.7 33.308 20 36 20z"/></svg>