<svg version="1.0" viewBox="0 0 64 64"><path d="M32 .006c-8.191 0-16.383 3.122-22.627 9.367-12.49 12.488-12.49 32.767 0 45.254 12.488 12.49 32.766 12.49 45.254 0 12.49-12.488 12.49-32.767 0-45.254C48.382 3.128 40.191.006 32 .006zm0 1.988c7.675 0 15.35 2.93 21.213 8.793v.002c11.725 11.723 11.725 30.698 0 42.422v.002c-11.724 11.726-30.702 11.726-42.426 0v-.002c-11.725-11.723-11.725-30.698 0-42.422v-.002A29.902 29.902 0 0132 1.994z"/><path d="M20 16v2h24v-2zm-4 6v2h32v-2z"/><path d="M25 23v20s-.01 1.139-.332 2.213c-.161.537-.404 1.031-.678 1.336-.274.304-.518.451-.99.451h-4v2h4a3.353 3.353 0 002.479-1.111c.57-.633.89-1.389 1.103-2.102C27.01 44.361 27 43 27 43V23zm11 0v21s-.014 1.209.605 2.447C37.225 47.686 38.667 49 41 49h2v-2h-2c-1.667 0-2.225-.686-2.605-1.447C38.014 44.79 38 44 38 44V23z"/></svg>