<svg version="1.0" viewBox="0 0 64 64"><path d="M32 .006c-8.191 0-16.383 3.122-22.627 9.367-12.49 12.488-12.49 32.767 0 45.254 12.488 12.49 32.766 12.49 45.254 0 12.49-12.488 12.49-32.767 0-45.254C48.382 3.128 40.191.006 32 .006zm0 1.988c7.675 0 15.35 2.93 21.213 8.793v.002c11.725 11.723 11.725 30.698 0 42.422v.002c-11.724 11.726-30.702 11.726-42.426 0v-.002c-11.725-11.723-11.725-30.698 0-42.422v-.002A29.902 29.902 0 0132 1.994z"/><path d="M23 16v32h2V16z"/><path d="M30.813 15.998c-.88-.05-1.461.006-1.461.006l.091-.004H24v2h5.488l.045-.004s1.961-.16 3.85.525c1.889.686 3.623 1.954 3.623 5.479 0 3.525-1.734 4.793-3.623 5.479-1.889.685-3.85.525-3.85.525L29.488 30H24v2h5.443l-.091-.004s2.32.232 4.712-.637c2.393-.868 4.942-3.1 4.942-7.359 0-4.258-2.55-6.49-4.942-7.36-1.196-.434-2.372-.591-3.252-.642z"/><path d="M31.78 29.998c-.994-.058-1.65.006-1.65.006l.09-.004H24v2h6.266l.046-.004s2.264-.187 4.458.61c2.193.796 4.232 2.314 4.232 6.394s-2.039 5.598-4.232 6.395c-2.194.796-4.458.609-4.458.609L30.266 46H24v2h6.22l-.09-.004s2.626.26 5.323-.72c2.697-.98 5.549-3.463 5.549-8.276s-2.852-7.296-5.549-8.275c-1.348-.49-2.68-.67-3.674-.727z"/><path d="M28.5 12.5v40h3v-40zm1 1h1v38h-1z"/></svg>