<svg version="1.0" viewBox="0 0 64 64"><g fill="none" stroke="#000" stroke-width="2" stroke-miterlimit="10"><path d="M52 62.999v-62H26l-14 14V63l4-2 4 2 4-2 4 2 4-2 4 2 4-2 4 2 4-2z"/><path d="M12 14.999h14v-14"/></g><path d="M34.059 20.084c-2.026 0-3.944.23-5.485 1.12C27.034 22.091 26 23.766 26 26v22h12v-2H28V26c0-1.693.556-2.477 1.574-3.064 1.019-.588 2.63-.852 4.485-.852 1.774 0 2.8.427 3.386.8.586.375.68.6.68.6l1.75-.968s-.438-.733-1.354-1.317c-.915-.584-2.358-1.115-4.462-1.115z"/><path d="M22 33v2h12v-2zm0 4v2h12v-2zm0 9v2h5v-2z"/></svg>