<svg version="1.0" viewBox="0 0 64 64"><g fill="none" stroke="#000" stroke-width="2" stroke-miterlimit="10"><path d="M52 62.999v-62H26l-14 14V63l4-2 4 2 4-2 4 2 4-2 4 2 4-2 4 2 4-2z"/><path d="M12 14.999h14v-14"/></g><path d="M25 20v28h2V20z"/><path d="M26 20v2h5.988l.037-.002s2.348-.151 4.627.672c1.14.411 2.23 1.05 3.03 2.031.799.98 1.35 2.31 1.35 4.299 0 1.988-.551 3.318-1.35 4.299-.8.98-1.89 1.62-3.03 2.031-2.28.823-4.627.672-4.627.672L31.988 36H22v2h9.953l-.072-.002s2.691.21 5.451-.787c1.38-.498 2.808-1.311 3.898-2.649 1.09-1.337 1.801-3.189 1.801-5.562s-.71-4.225-1.8-5.563c-1.09-1.337-2.52-2.15-3.899-2.648-2.76-.996-5.451-.787-5.451-.787l.072-.002zm-4 21v2h11v-2z"/></svg>