<svg version="1.0" viewBox="0 0 64 64"><g fill="none" stroke="#000" stroke-width="2" stroke-miterlimit="10"><path d="M52 62.999v-62H26l-14 14V63l4-2 4 2 4-2 4 2 4-2 4 2 4-2 4 2 4-2z"/><path d="M12 14.999h14v-14"/></g><path d="M23 20v28h2V20z"/><path d="M24 20v2h6.035l.035-.002s2.332-.147 4.596.678c1.132.412 2.215 1.053 3.01 2.033.794.98 1.342 2.307 1.342 4.291 0 1.984-.548 3.312-1.342 4.291-.795.98-1.878 1.62-3.01 2.033-2.264.825-4.596.678-4.596.678L30.035 36H24v2h6l-.07-.002s2.677.205 5.422-.795c1.372-.5 2.793-1.316 3.877-2.652 1.083-1.337 1.789-3.183 1.789-5.551 0-2.368-.706-4.214-1.79-5.55-1.083-1.337-2.504-2.153-3.876-2.653-2.745-1-5.422-.795-5.422-.795L30 20z"/><path d="M20 26v2h24v-2zm0 4v2h24v-2z"/></svg>