<svg version="1.0" viewBox="0 0 64 64"><g fill="none" stroke="#000" stroke-width="2" stroke-miterlimit="10"><path d="M52 62.999v-62H26l-14 14V63l4-2 4 2 4-2 4 2 4-2 4 2 4-2 4 2 4-2z"/><path d="M12 14.999h14v-14"/></g><path d="M32 23c-3.243 0-5.143.825-6.117 2.16C24.909 26.495 25 28.027 25 29c0 1.087.167 2.473 1.27 3.486C27.372 33.5 29.14 34 32 34c2.847 0 4.247.938 5.045 1.887.399.474.642.969.783 1.373.141.404.172.773.172.74 0 .814.079 1.992-.531 2.994C36.859 41.996 35.56 43 32 43c-2.901 0-4.032-.745-4.53-1.367C26.975 41.01 27 40.42 27 40h-2c0 .264-.055 1.675.908 2.88C26.871 44.088 28.74 45 32 45c3.97 0 6.17-1.311 7.178-2.967C40.185 40.377 40 38.555 40 38c0-.375-.074-.803-.283-1.4a6.375 6.375 0 00-1.14-2C37.414 33.22 35.313 32 32 32c-2.617 0-3.848-.5-4.377-.986C27.094 30.527 27 29.913 27 29c0-1.027.012-1.995.498-2.66S29.082 25 32 25c2.864 0 3.97.86 4.502 1.59.532.73.498 1.369.498 1.369l2 .082s.045-1.36-.883-2.63C37.19 24.14 35.297 23 32 23z"/><path d="M33 21v27h2V21zm-4 0v27h2V21z"/></svg>