<svg version="1.0" viewBox="0 0 64 64"><path d="M28.5 12.5v40h3v-40zm1 1h1v38h-1zm3-1v40h3v-40zm1 1h1v38h-1z"/><path d="M31.988 16c-4.759 0-7.24 1.996-8.27 4.053-1.002 2.006-.736 3.929-.722 4.025 0 .12.016 1.981 1.123 3.918 1.143 2 3.578 4.004 7.87 4.004 4.277 0 6.428 1.37 7.616 2.771C40.793 36.172 41 37.837 41 38c0 1.165.183 2.806-.72 4.209C39.374 43.611 37.305 45 31.987 45c-4.352 0-6.302-.97-7.162-1.832C23.966 42.306 24 41.504 24 41h-2c0 .496.026 2.194 1.41 3.582S27.34 47 31.988 47c5.682 0 8.619-1.611 9.971-3.709C43.311 41.194 43 38.835 43 38c0-.837-.301-2.672-1.87-4.521C39.564 31.629 36.71 30 31.989 30c-3.708 0-5.275-1.495-6.133-2.996-.857-1.5-.867-3.004-.867-3.004v-.07l-.01-.07s-.192-1.47.53-2.913c.721-1.443 2.24-2.947 6.48-2.947 4.278 0 6.142 1.356 7.075 2.6.932 1.244.925 2.4.925 2.4h2s-.009-1.844-1.326-3.6c-1.317-1.756-3.951-3.4-8.674-3.4z"/><path d="M32 .006c-8.191 0-16.383 3.122-22.627 9.367-12.49 12.488-12.49 32.767 0 45.254 12.487 12.49 32.766 12.49 45.254 0 12.49-12.488 12.49-32.767 0-45.254C48.382 3.128 40.191.006 32 .006zm0 1.988c7.675 0 15.35 2.93 21.213 8.793v.002c11.725 11.723 11.725 30.698 0 42.422v.002c-11.724 11.726-30.701 11.726-42.424 0v-.002h-.002c-11.725-11.723-11.725-30.698 0-42.422l.002-.002A29.897 29.897 0 0132 1.994z"/></svg>