<svg version="1.0" viewBox="0 0 64 64"><path d="M32 .006c-8.191 0-16.383 3.122-22.627 9.367-12.49 12.488-12.49 32.767 0 45.254 12.487 12.49 32.766 12.49 45.254 0 12.49-12.488 12.49-32.767 0-45.254C48.382 3.128 40.191.006 32 .006zm0 1.988c7.675 0 15.35 2.93 21.213 8.793v.002c11.725 11.723 11.725 30.698 0 42.422v.002c-11.724 11.726-30.701 11.726-42.424 0v-.002h-.002c-11.725-11.723-11.725-30.698 0-42.422l.002-.002A29.897 29.897 0 0132 1.994z"/><path d="M36 15c-2.605 0-5.048.51-6.92 1.8C27.208 18.09 26 20.23 26 23v27h15v-2H28V23c0-2.23.822-3.59 2.215-4.55C31.608 17.49 33.665 17 36 17c2.268 0 3.498.66 4.205 1.262.707.6.852 1.07.852 1.07l1.886-.664s-.385-1.03-1.443-1.93C40.442 15.84 38.673 15 36 15z"/><path d="M21 48v2h6v-2zm0-17v2h14v-2z"/></svg>