<svg version="1.0" viewBox="0 0 64 64"><path d="M44 18c-11.034 0-20 8.966-20 20s8.966 20 20 20 20-8.966 20-20-8.966-20-20-20zm0 2c9.953 0 18 8.047 18 18s-8.047 18-18 18-18-8.047-18-18 8.047-18 18-18z"/><path d="M44 24c-7.72 0-14 6.28-14 14s6.28 14 14 14 14-6.28 14-14-6.28-14-14-14zm0 2c6.64 0 12 5.36 12 12s-5.36 12-12 12-12-5.36-12-12 5.36-12 12-12zM0 50v8h39v-2H2v-4h28v-2z"/><path d="M2 44v8h28v-2H4v-4h23v-2z"/><path d="M4 38v8h23v-2H6v-4h20v-2z"/><path d="M0 32v8h26v-2H2v-4h24v-2z"/><path d="M2 26v8h24v-2H4v-4h25v-2z"/><path d="M0 20v8h29v-2H2v-4h33v-2z"/><path d="M2 14v8h33v-2H4v-4h35v4h2v-6z"/><path d="M0 8v8h39V8zm2 2h35v4H2z"/></svg>