<svg version="1.0" viewBox="0 0 64 64"><path d="M-.375 24l.424 1.309L11.273 60h41.454l11.648-36zm2.75 2h59.25L51.273 58H12.727z"/><path d="M21.072 4.629l-8 20 1.856.742 8-20zm21.856 0l-1.856.742 8 20 1.856-.742zM32 35c-3.661 0-6.794 2.895-7.742 6.188-.958.21-1.781.677-2.29 1.312-.641.803-.968 1.667-.968 2.5 0 1.167.307 2.221 1.043 2.957C22.779 48.693 23.833 49 25 49h14c1.12 0 2.161-.31 2.904-1.033C42.647 47.244 43 46.185 43 45c0-.833-.327-1.697-.969-2.5-.495-.619-1.293-1.072-2.217-1.295-.225-1.741-1.003-3.283-2.285-4.33C36.044 35.662 34.076 35 32 35zm0 2c1.647 0 3.18.538 4.264 1.424C37.348 39.31 38 40.5 38 42v1h1c.667 0 1.111.303 1.469.75.358.447.531 1.083.531 1.25 0 .815-.205 1.256-.49 1.533-.285.277-.743.467-1.51.467H25c-.833 0-1.279-.193-1.543-.457S23 45.833 23 45c0-.167.173-.803.531-1.25.358-.447.802-.75 1.469-.75h.824l.158-.809C26.466 39.7 29.308 37 32 37z"/></svg>