<svg version="1.0" viewBox="0 0 64 64"><path d="M20 50c-3.854 0-7 3.146-7 7s3.146 7 7 7 7-3.146 7-7-3.146-7-7-7zm0 2c2.773 0 5 2.227 5 5s-2.227 5-5 5-5-2.227-5-5 2.227-5 5-5zm24-2c-3.854 0-7 3.146-7 7s3.146 7 7 7 7-3.146 7-7-3.146-7-7-7zm0 2c2.773 0 5 2.227 5 5s-2.227 5-5 5-5-2.227-5-5 2.227-5 5-5z"/><path d="M26 56v2h12v-2zM0 1v2h9.07l3.932 54.072 1.996-.144L10.93 1z"/><path d="M11 9v2h50.738l-6.545 28.055-42.263 2.947.14 1.996 43.737-3.053L64.26 9z"/><path d="M21.28 3l-2.23 6.684 1.9.632L22.72 5h8.56l1.77 5.316 1.9-.632L32.72 3z"/><path d="M36.723 0l-5.237 3.143 1.028 1.714L37.277 2H52.28l2.772 8.316 1.898-.632L53.721 0z"/></svg>