<svg version="1.0" viewBox="0 0 64 64"><g fill="none" stroke="#000" stroke-width="2" stroke-miterlimit="10"><path d="M52 62.999v-62H26l-14 14V63l4-2 4 2 4-2 4 2 4-2 4 2 4-2 4 2 4-2z"/><path d="M12 14.999h14v-14"/></g><path d="M25 22v26h2V22z"/><path d="M26 22v2h5s1.291.014 2.553.645C34.814 25.275 36 26.333 36 29c0 2.1-1.103 2.917-2.385 3.451C32.334 32.985 31 33 31 33h-5v2h5s1.666.015 3.385-.701C36.103 33.583 38 31.9 38 29c0-3.333-1.814-5.275-3.553-6.145C32.71 21.986 31 22 31 22z"/><path d="M27 33v2h5.033s1.532-.036 3.031.69C36.564 36.414 38 37.71 38 41c0 2.611-1.366 3.675-2.895 4.33C33.577 45.985 32 46 32 46h-6v2h6s1.923.015 3.895-.83C37.866 46.325 40 44.389 40 41c0-3.936-2.063-6.141-4.064-7.11-2.001-.968-3.97-.89-3.97-.89z"/><path d="M31 20v30h2V20z"/></svg>