<svg version="1.0" viewBox="0 0 64 64"><path d="M0 4v56h64V4zm2 2h60v52H2z"/><path d="M10 10v44h48V10zm2 2h44v40H12z"/><path d="M6 16v2h6v-2zm0 10v2h6v-2zm0 10v2h6v-2zm0 10v2h6v-2zm38-18c-2.197 0-4 1.803-4 4s1.803 4 4 4 4-1.803 4-4-1.803-4-4-4zm0 2c1.116 0 2 .884 2 2s-.884 2-2 2-2-.884-2-2 .884-2 2-2z"/><path d="M44 22c-5.511 0-10 4.489-10 10s4.489 10 10 10 10-4.489 10-10-4.489-10-10-10zm0 2c4.43 0 8 3.57 8 8s-3.57 8-8 8-8-3.57-8-8 3.57-8 8-8z"/><path d="M35 31v2h6v-2zm8-8v6h2v-6zm4 8v2h6v-2zm-4 4v6h2v-6zm3.707-1.707l-1.414 1.414 4 4 1.414-1.414zm2.586-8l-4 4 1.414 1.414 4-4zm-10.586 0l-1.414 1.414 4 4 1.414-1.414zm2.584 8.002l-3.975 4 1.42 1.41 3.973-4z"/></svg>