<svg version="1.0" viewBox="0 0 64 64"><path d="M20 50c-3.854 0-7 3.146-7 7s3.146 7 7 7 7-3.146 7-7-3.146-7-7-7zm0 2c2.773 0 5 2.227 5 5s-2.227 5-5 5-5-2.227-5-5 2.227-5 5-5zm24-2c-3.854 0-7 3.146-7 7s3.146 7 7 7 7-3.146 7-7-3.146-7-7-7zm0 2c2.773 0 5 2.227 5 5s-2.227 5-5 5-5-2.227-5-5 2.227-5 5-5z"/><path d="M26 56v2h12v-2zM0 1v2h9.07l3.932 54.072 1.996-.144L10.93 1z"/><path d="M11 9v2h50.738l-6.545 28.055-42.263 2.947.14 1.996 43.737-3.053L64.26 9z"/><path d="M27 26c0 2.48.983 4.93 2.582 6.805C31.181 34.679 33.445 36 36 36h4v-2h-4c-1.863 0-3.6-.971-4.896-2.492C29.807 29.988 29 27.938 29 26z"/><path d="M37.8 30.4l-1.6 1.2 2.55 3.4-2.55 3.4 1.6 1.2 3-4v-1.2zM34 16v2h4c1.863 0 3.6.971 4.896 2.492C44.193 22.012 45 24.062 45 26h2c0-2.48-.983-4.93-2.582-6.805C42.819 17.321 40.555 16 38 16z"/><path d="M36.2 12.4l-3 4v1.2l3 4 1.6-1.2-2.55-3.4 2.55-3.4z"/></svg>