<svg version="1.0" viewBox="0 0 64 64"><path d="M20 50c-3.854 0-7 3.146-7 7s3.146 7 7 7 7-3.146 7-7-3.146-7-7-7zm0 2c2.773 0 5 2.227 5 5s-2.227 5-5 5-5-2.227-5-5 2.227-5 5-5zm24-2c-3.854 0-7 3.146-7 7s3.146 7 7 7 7-3.146 7-7-3.146-7-7-7zm0 2c2.773 0 5 2.227 5 5s-2.227 5-5 5-5-2.227-5-5 2.227-5 5-5z"/><path d="M26 56v2h12v-2zM0 1v2h9.07l3.932 54.072 1.996-.144L10.93 1z"/><path d="M11 9v2h50.738l-6.545 28.055-42.263 2.947.14 1.996 43.737-3.053L64.26 9z"/><g fill="none" stroke="#000" stroke-width="2" stroke-miterlimit="10"><circle cx="33" cy="23" r="6"/><path d="M37 27l8 8"/></g></svg>