<svg version="1.0" viewBox="0 0 64 64"><g fill="none" stroke="#000" stroke-width="2" stroke-miterlimit="10"><path d="M52 62.999v-62H26l-14 14V63l4-2 4 2 4-2 4 2 4-2 4 2 4-2 4 2 4-2z"/><path d="M12 14.999h14v-14"/></g><path d="M21 20v2h6.988s2.344.042 4.635.973c1.146.465 2.25 1.144 3.049 2.097C36.47 26.023 37 27.243 37 29c0 1.997-.547 3.332-1.34 4.313-.793.98-1.871 1.62-3 2.029-2.257.818-4.586.66-4.586.66L28.037 36H21v2.441l13.387 12.235 1.35-1.477L23.481 38H28l-.074-.002s2.671.217 5.414-.777c1.371-.497 2.793-1.311 3.875-2.65C38.297 33.23 39 31.377 39 29c0-2.18-.72-3.93-1.797-5.215-1.076-1.285-2.472-2.114-3.826-2.664-2.709-1.1-5.365-1.121-5.365-1.121h-.006z"/><path d="M21 20v2h22v-2zm0 5v2h22v-2z"/></svg>