<svg version="1.0" viewBox="0 0 64 64"><path d="M0 17v11h64V17zm2 2h60v7H2z"/><path d="M5 26v33h54V26zm2 2h50v29H7z"/><path d="M31 18v40h2V18z"/><path d="M23.027 3.955c-.866.072-1.697.28-2.447.658C19.081 5.37 18 6.94 18 9c0 2.513.937 4.506 2.31 5.938 1.374 1.431 3.142 2.331 4.866 2.921C28.623 19.04 32.008 19 32.008 19l.992-.008V11c0-1.874-1.013-3.474-2.39-4.625-1.378-1.151-3.14-1.92-4.924-2.258a9.935 9.935 0 00-2.659-.162zM23.2 5.96a7.94 7.94 0 012.115.123c1.467.278 2.954.942 4.014 1.828C30.388 8.796 31 9.84 31 11v5.936a18.287 18.287 0 01-5.176-.97c-1.526-.522-3.008-1.304-4.072-2.413C20.688 12.443 20 11.037 20 9c0-1.44.544-2.128 1.482-2.602.47-.236 1.06-.384 1.717-.439z"/><path d="M40.973 3.955a9.935 9.935 0 00-2.659.162c-1.783.339-3.546 1.107-4.923 2.258C32.013 7.526 31 9.125 31 11v7.992l.992.008s3.385.04 6.832-1.14c1.724-.59 3.492-1.49 4.865-2.922C45.063 13.505 46 11.512 46 9c0-2.06-1.081-3.63-2.58-4.387-.75-.378-1.581-.586-2.447-.658zM40.8 5.96c.657.055 1.247.203 1.717.44C43.456 6.871 44 7.558 44 9c0 2.037-.688 3.444-1.752 4.553s-2.546 1.891-4.072 2.414a18.287 18.287 0 01-5.176.969V11c0-1.16.612-2.204 1.672-3.09 1.06-.886 2.547-1.55 4.014-1.828a7.94 7.94 0 012.115-.123z"/></svg>