<svg version="1.0" viewBox="0 0 64 64"><g fill="none" stroke="#000" stroke-width="2" stroke-miterlimit="10"><path d="M52 62.999v-62H26l-14 14V63l4-2 4 2 4-2 4 2 4-2 4 2 4-2 4 2 4-2z"/><path d="M12 14.999h14v-14"/></g><path d="M34 22c-3.756 0-6.417 1.341-7.97 3.574C24.475 27.807 24 30.757 24 34c0 3.243.477 6.412 2 8.88 1.523 2.47 4.197 4.12 8 4.12 3.722 0 6.005-1.081 7.316-2.256 1.312-1.175 1.659-2.517 1.659-2.517l-1.95-.454s-.121.658-1.043 1.483C39.062 44.08 37.345 45 34 45c-3.263 0-5.089-1.209-6.299-3.17C26.491 39.87 26 37.038 26 34c0-3.038.492-5.589 1.672-7.285C28.852 25.018 30.69 24 34 24c3.392 0 5.178.716 6.092 1.33.457.307.703.592.834.777.13.186.119.19.119.19l1.91-.594s-.127-.371-.392-.748c-.266-.377-.696-.842-1.356-1.285C39.887 22.784 37.675 22 34 22z"/><path d="M21 32v2h15v-2zm0 4v2h15v-2z"/></svg>