<svg version="1.0" viewBox="0 0 64 64"><path d="M32 .006c-8.191 0-16.383 3.122-22.627 9.367-12.49 12.488-12.49 32.767 0 45.254 12.487 12.49 32.766 12.49 45.254 0 12.49-12.488 12.49-32.767 0-45.254C48.382 3.128 40.191.006 32 .006zm0 1.988c7.675 0 15.35 2.93 21.213 8.793v.002c11.725 11.723 11.725 30.698 0 42.422v.002c-11.724 11.726-30.701 11.726-42.424 0v-.002h-.002c-11.725-11.723-11.725-30.698 0-42.422l.002-.002A29.897 29.897 0 0132 1.994z"/><path d="M32 16c-4.76 0-8.158 1.94-10.201 4.938C19.755 23.934 19 27.875 19 32c0 4.125.755 8.065 2.799 11.063C23.842 46.06 27.24 48 32 48c4.648 0 7.378-1.039 8.963-2.191.792-.577 1.29-1.178 1.588-1.655.298-.476.42-.912.42-.912l.029-.119V35h-7v2h5v5.814c-.005.022-.002.054-.145.282-.17.273-.485.672-1.068 1.095C38.622 45.04 36.352 46 32 46c-4.24 0-6.842-1.56-8.549-4.063C21.745 39.435 21 35.876 21 32c0-3.875.745-7.435 2.451-9.938C25.158 19.56 27.76 18 32 18c4.352 0 6.622.961 7.787 1.809.583.423.898.822 1.068 1.095.171.274.174.338.174.338l1.942-.484s-.122-.436-.42-.912c-.298-.477-.796-1.078-1.588-1.655C39.378 17.04 36.648 16 32 16z"/><path d="M31 12v40h2V12z"/></svg>