<svg version="1.0" viewBox="0 0 64 64"><path d="M32 .006c-8.191 0-16.383 3.122-22.627 9.367-12.49 12.488-12.49 32.767 0 45.254 12.488 12.49 32.766 12.49 45.254 0 12.49-12.488 12.49-32.767 0-45.254C48.382 3.128 40.191.006 32 .006zm0 1.988c7.675 0 15.35 2.93 21.213 8.793v.002c11.725 11.723 11.725 30.698 0 42.422v.002c-11.724 11.726-30.702 11.726-42.426 0v-.002c-11.725-11.723-11.725-30.698 0-42.422v-.002A29.902 29.902 0 0132 1.994z"/><path d="M23 16v32h2V16z"/><path d="M32.75 15.998c-1.108-.065-1.84.006-1.84.006L31 16h-7v2h7.045l.045-.004s2.57-.215 5.068.693C38.657 19.598 41 21.367 41 26s-2.343 6.402-4.842 7.31c-2.498.91-5.068.694-5.068.694L31.045 34H19v2h12l-.09-.004s2.93.285 5.932-.807C39.843 34.098 43 31.367 43 26s-3.157-8.098-6.158-9.19c-1.501-.545-2.984-.747-4.092-.812zM19 40v2h13v-2z"/></svg>