<svg viewBox="0 0 64 64"><path d="M31.998-.002c-17.661 0-32 14.339-32 32s14.339 32 32 32 32-14.339 32-32-14.339-32-32-32zm0 2c16.58 0 30 13.42 30 30s-13.42 30-30 30-30-13.42-30-30 13.42-30 30-30z"/><path d="M31.998 26.998c-2.75 0-5 2.25-5 5s2.25 5 5 5 5-2.25 5-5-2.25-5-5-5zm0 2c1.669 0 3 1.331 3 3s-1.331 3-3 3-3-1.331-3-3 1.331-3 3-3z"/><path d="M31.998 18.998c-1.959 0-4.386.808-7.092 1.955-2.706 1.147-5.647 2.662-8.377 4.172-5.459 3.02-10.076 6.037-10.076 6.037l-1.283.836 1.283.838s4.617 3.016 10.076 6.037c2.73 1.51 5.671 3.025 8.377 4.172 2.706 1.147 5.133 1.953 7.092 1.953 7.168 0 13-5.833 13-13s-5.832-13-13-13zm0 2c6.088 0 11 4.913 11 11s-4.912 11-11 11c-1.355 0-3.708-.692-6.31-1.795-2.603-1.103-5.498-2.588-8.19-4.078C12.87 34.564 9.98 32.669 8.941 32c1.039-.669 3.929-2.566 8.557-5.127 2.692-1.49 5.587-2.975 8.19-4.078 2.602-1.103 4.955-1.797 6.31-1.797z"/></svg>