<svg viewBox="0 0 64 64"><path d="M32.002-.002c-17.661 0-32 14.339-32 32s14.339 32 32 32 32-14.339 32-32-14.339-32-32-32zm0 2c16.58 0 30 13.42 30 30s-13.42 30-30 30-30-13.42-30-30 13.42-30 30-30z"/><path d="M40.744 1.033C27.056 4.68 18.002 17.236 18.002 31.998c0 14.76 9.056 27.32 22.742 30.967l.516-1.932c-12.798-3.41-21.258-15.088-21.258-29.035 0-13.948 8.458-25.625 21.258-29.033z"/><path d="M34 4v2h13V4zm-7 6v2h28v-2zm-5 6v2h37v-2zm-2 6v2h42v-2zm-1 6v2h44v-2zm0 6v2h44v-2zm1 6v2h42v-2zm3 6v2h36v-2zm4 6v2h28v-2zm7 6v2h13v-2z"/></svg>