<svg viewBox="0 0 64 64"><path d="M40 0c-2.23 0-4.013.802-5.3 1.982-1.289 1.181-2.103 2.7-2.64 4.176C30.988 9.11 31 12 31 12v40h2V12s.013-2.61.94-5.158c.463-1.275 1.149-2.505 2.11-3.387C37.014 2.573 38.23 2 40 2s2.987.573 3.95 1.455c.961.882 1.647 2.112 2.11 3.387C46.988 9.39 47 12 47 12v40c0 7.571 6.36 12.768 6.36 12.768l1.28-1.536S49 58.43 49 52V12s.013-2.89-1.06-5.842c-.537-1.475-1.351-2.995-2.64-4.176C44.014.802 42.23 0 40 0z"/><path d="M24 0c-2.21 0-3.985.802-5.268 1.982s-2.099 2.698-2.64 4.172C15.009 9.103 15 11.992 15 11.992V52h2V12c0-.012.035-2.609.97-5.154.47-1.276 1.159-2.509 2.118-3.39C21.048 2.572 22.252 2 24 2c1.748 0 2.953.573 3.912 1.455.96.882 1.649 2.115 2.117 3.39.938 2.552.971 5.163.971 5.163l2-.016s-.009-2.89-1.092-5.838c-.541-1.474-1.357-2.991-2.64-4.172C27.985.802 26.21 0 24 0z"/><path d="M8 1v2c1.792 0 3.027.533 3.984 1.33.957.798 1.631 1.898 2.088 3.041C14.987 9.658 15 12 15 12h2s.013-2.658-1.072-5.371c-.543-1.357-1.37-2.757-2.662-3.834C11.973 1.717 10.208 1 8 1zm46 8c-1.889 0-3.357 1.164-4.31 2.646-.954 1.483-1.53 3.328-1.919 5.145C46.993 20.425 47 24 47 24h2s.007-3.425.729-6.791c.36-1.683.91-3.338 1.644-4.48C52.107 11.586 52.889 11 54 11c1.111 0 1.893.586 2.627 1.729.734 1.142 1.284 2.797 1.644 4.48.718 3.35.729 6.735.729 6.77 0 .012-.26 8.348-3.674 16.64-1.708 4.15-4.2 8.258-7.787 11.307C43.952 54.975 39.282 57 33 57v2c6.718 0 11.923-2.225 15.836-5.55 3.913-3.327 6.546-7.718 8.338-12.07C60.757 32.68 61 24.03 61 24.03V24s.007-3.575-.771-7.209c-.39-1.817-.965-3.662-1.918-5.145C57.357 10.164 55.889 9 54 9z"/></svg>