<svg viewBox="0 0 64 64"><path d="M34 2C23.77 2 14.514 8.373 12.256 18H11C4.674 18 0 23.79 0 30s4.79 11 11 11h7v-2h-7c-5.207 0-9-3.793-9-9s3.91-10 9-10h2.83l.152-.814C15.684 10.13 24.322 4 34 4c10.913 0 20 8.146 20 19v1h1c3.917 0 7 3.937 7 8 0 4.063-2.937 7-7 7H45v2h10c5.067 0 9-3.933 9-9 0-4.744-3.38-9.213-8.082-9.783C55.478 10.646 45.647 2 34 2z"/><path fill="none" stroke="#000" stroke-width="2" stroke-miterlimit="10" d="M23 42c0 5.034 4.136 8 9 8s8-2.966 8-8c0-7-8-17-8-17s-9 10-9 17z"/></svg>