<svg viewBox="0 0 64 64"><path d="M36 10c-9.422 0-17.66 6.162-19.748 15H15C9.156 25 5 30.283 5 36s4.283 10 10 10h41c2.319 0 4.352-.793 5.78-2.22C63.206 42.351 64 40.318 64 38s-.754-4.737-2.113-6.65c-1.187-1.671-2.922-2.916-4.987-3.221C56.375 17.52 46.656 10 36 10zm0 2c9.996 0 19 7.131 19 17v1h1c1.712 0 3.163.969 4.256 2.508C61.349 34.047 62 36.129 62 38s-.612 3.338-1.637 4.363C59.338 43.388 57.871 44 56 44H15c-4.76 0-8-3.24-8-8s3.368-9 8-9h2.83l.152-.814C19.541 17.894 27.176 12 36 12z"/><path d="M22 8C14.28 8 8 14.28 8 22c0 2.76.841 4.48 2.158 6.54l1.684-1.08C10.572 25.478 10 24.395 10 22c0-6.64 5.36-12 12-12 2.79 0 5.346.947 7.383 2.54l1.232-1.575A13.957 13.957 0 0022 8zM0 21v2h6v-2zM21 0v6h2V0zM4.707 3.293L3.293 4.707l6 6 1.414-1.414zm9.398 56.26l-1 2 1.79.894 1-2zm10 0l-1 2 1.79.894 1-2zm10 0l-1 2 1.79.894 1-2zm10 0l-1 2 1.79.894 1-2zm-26-12l-1 2 1.79.894 1-2zm10 0l-1 2 1.79.894 1-2zm10 0l-1 2 1.79.894 1-2zm10 0l-1 2 1.79.894 1-2zm-38 6l-1 2 1.79.894 1-2zm10 0l-1 2 1.79.894 1-2zm10 0l-1 2 1.79.894 1-2zm10 0l-1 2 1.79.894 1-2z"/></svg>