<svg viewBox="0 0 64 64"><path d="M32 0C14.339 0 0 14.339 0 32s14.339 32 32 32 32-14.339 32-32S49.661 0 32 0zm0 2c16.58 0 30 13.42 30 30S48.58 62 32 62 2 48.58 2 32 15.42 2 32 2z"/><path d="M32 27c-2.75 0-5 2.25-5 5s2.25 5 5 5 5-2.25 5-5-2.25-5-5-5zm0 2c1.669 0 3 1.331 3 3s-1.331 3-3 3-3-1.331-3-3 1.331-3 3-3z"/><path d="M32 19.006c-3.33 0-6.657 1.267-9.191 3.803-1.386 1.384-2.494 3.636-3.534 6.3-1.04 2.665-1.964 5.732-2.742 8.647a162.37 162.37 0 00-2.517 11.062l-.262 1.426 1.428-.262s5.23-.96 11.06-2.515c2.915-.777 5.982-1.703 8.647-2.742 2.664-1.04 4.917-2.148 6.302-3.534 5.07-5.07 5.068-13.316 0-18.384A12.956 12.956 0 0032 19.006zm0 1.986c2.813 0 5.626 1.077 7.777 3.229a10.985 10.985 0 010 15.556c-.958.959-3.061 2.088-5.615 3.084-2.553.997-5.563 1.907-8.433 2.672-4.947 1.32-8.244 1.918-9.4 2.139.22-1.156.818-4.454 2.138-9.4.765-2.87 1.675-5.88 2.672-8.434.996-2.554 2.125-4.657 3.084-5.615A10.962 10.962 0 0132 20.993z"/></svg>