<svg viewBox="0 0 64 64"><path d="M34 2C23.77 2 14.514 8.373 12.256 18H11C4.674 18 0 23.79 0 30s4.79 11 11 11h7v-2h-7c-5.207 0-9-3.793-9-9s3.91-10 9-10h2.83l.152-.814C15.684 10.13 24.322 4 34 4c10.913 0 20 8.146 20 19v1h1c3.917 0 7 3.937 7 8 0 4.063-2.937 7-7 7h-9v2h9c5.067 0 9-3.933 9-9 0-4.744-3.38-9.213-8.082-9.783C55.478 10.646 45.647 2 34 2z"/><path d="M21.832 36.445l-1.664 1.11L21.798 40l-1.63 2.445 1.664 1.11L24.202 40zm20.336 0L39.798 40l2.37 3.555 1.664-1.11L42.202 40l1.63-2.445z"/><path d="M23 39v2h7v-2zm11 0v2h7v-2zm-2 8.799l-3.555 2.369 1.11 1.664L32 50.202l2.445 1.63 1.11-1.664zm-2.445-19.631l-1.11 1.664L32 32.202l3.555-2.37-1.11-1.664L32 29.798z"/><path d="M31 42v7h2v-7zm0-11v7h2v-7zm-5.637-1.096l-.576 2.883-2.883.576.393 1.961 4.19-.838.837-4.19zm16.34 14.772l-4.19.838-.837 4.19 1.96.392.577-2.883 2.883-.576z"/><path d="M26.344 32.93l-1.414 1.414 4.363 4.363 1.414-1.414zm8.363 8.363l-1.414 1.414 4.363 4.363 1.414-1.414zm-12.41 3.383l-.393 1.96 2.883.577.576 2.883 1.961-.393-.838-4.19zm16.34-14.772l-1.961.393.838 4.19 4.19.837.392-1.96-2.883-.577z"/><path d="M29.293 41.293l-4.363 4.363 1.414 1.414 4.363-4.363zm8.363-8.363l-4.363 4.363 1.414 1.414 4.363-4.363z"/></svg>