<svg viewBox="0 0 64 64"><path d="M34 2C23.77 2 14.514 8.373 12.256 18H11C4.674 18 0 23.79 0 30s4.79 11 11 11v-2c-5.207 0-9-3.793-9-9s3.91-10 9-10h2.83l.152-.814C15.684 10.13 24.322 4 34 4c10.913 0 20 8.146 20 19v1h1c3.917 0 7 3.937 7 8 0 4.063-2.937 7-7 7v2c5.067 0 9-3.933 9-9 0-4.744-3.38-9.213-8.082-9.783C55.478 10.646 45.647 2 34 2zM2 52v2h30c2.222 0 4 1.78 4 4 0 2.22-1.778 4-4 4s-4-1.78-4-4h-2c0 3.301 2.698 6 6 6s6-2.699 6-6-2.698-6-6-6z"/><path d="M45 36c-3.302 0-6 2.699-6 6h2c0-2.22 1.778-4 4-4s4 1.78 4 4c0 2.22-1.778 4-4 4H4v2h41c3.302 0 6-2.699 6-6s-2.698-6-6-6z"/></svg>