<svg viewBox="0 0 64 64"><path d="M34 2C23.77 2 14.514 8.373 12.256 18H11C4.674 18 0 23.79 0 30s4.79 11 11 11h44c5.067 0 9-3.933 9-9 0-4.744-3.38-9.213-8.082-9.783C55.478 10.646 45.647 2 34 2zm0 2c10.913 0 20 8.146 20 19v1h1c3.917 0 7 3.937 7 8 0 4.063-2.937 7-7 7H11c-5.207 0-9-3.793-9-9s3.91-10 9-10h2.83l.152-.814C15.684 10.13 24.322 4 34 4zM23.09 44.586l-5 11 1.82.828 5-11zm-10 0l-5 11 1.82.828 5-11zm20 0l-5 11 1.82.828 5-11zm10 0l-5 11 1.82.828 5-11zm10 0l-5 11 1.82.828 5-11zM16.105 58.553l-1 2 1.79.894 1-2zm-10 0l-1 2 1.79.894 1-2zm20 0l-1 2 1.79.894 1-2zm10 0l-1 2 1.79.894 1-2zm10 0l-1 2 1.79.894 1-2z"/></svg>