<svg viewBox="0 0 64 64"><path d="M0 46v2h64v-2zm25.707 6.293l-1.414 1.414 7 7h1.414l7-7-1.414-1.414L32 58.586z"/><path d="M32 17a.78.78 0 00-.191.01l-1.514.025.617 1.381A12.485 12.485 0 0119.5 36c-2.154 0-4.175-.544-5.941-1.5l-1.346-.729-.127 1.524A20.173 20.173 0 0012 37a19.91 19.91 0 002.992 10.525l1.7-1.054A17.89 17.89 0 0114 37c0-.063.009-.129.01-.191C15.717 37.515 17.54 38 19.5 38 27.496 38 34 31.496 34 23.5c0-1.538-.316-2.986-.762-4.375C42.601 19.771 50 27.472 50 37c0 3.48-.984 6.722-2.691 9.473l1.699 1.054A19.914 19.914 0 0052 37c0-11.033-8.966-20-20-20z"/></svg>