<svg viewBox="0 0 64 64"><path d="M32 24c-10.482 0-19 8.518-19 19s8.518 19 19 19 19-8.518 19-19-8.518-19-19-19zm0 2c9.4 0 17 7.6 17 17s-7.6 17-17 17-17-7.6-17-17 7.6-17 17-17z"/><path d="M0 2v2c6.714 0 10.067 2.779 11.918 5.555 1.85 2.776 2.086 5.529 2.086 5.529L14 15s.025 2.898 2.363 5.648C18.701 23.4 23.303 26 32 26v-2c-8.304 0-12.201-2.4-14.113-4.648C15.975 17.102 16 15 16 15v-.041l-.004-.043s-.265-3.247-2.414-6.47C11.432 5.22 7.286 2 0 2zm64 0c-7.286 0-11.433 3.221-13.582 6.445-2.15 3.224-2.414 6.471-2.414 6.471l-.004.043V15s.025 2.102-1.887 4.352C44.201 21.6 40.303 24 32 24v2c8.696 0 13.299-2.6 15.637-5.352C49.975 17.898 50 15 50 15l-.004.084s.235-2.753 2.086-5.53C53.932 6.78 57.286 4 64 4z"/></svg>