<svg viewBox="0 0 64 64"><path d="M34 2C23.77 2 14.514 8.373 12.256 18H11C4.674 18 0 23.79 0 30s4.79 11 11 11h44c5.067 0 9-3.933 9-9 0-4.744-3.38-9.213-8.082-9.783C55.478 10.646 45.647 2 34 2zm0 2c10.913 0 20 8.146 20 19v1h1c3.917 0 7 3.937 7 8 0 4.063-2.937 7-7 7H11c-5.207 0-9-3.793-9-9s3.91-10 9-10h2.83l.152-.814C15.684 10.13 24.322 4 34 4zM21 43v5h2v-5zm0 9v5h2v-5zm5.293-7.707l-3 3 1.414 1.414 3-3zm-7 7l-3 3 1.414 1.414 3-3zm5.414 0l-1.414 1.414 3 3 1.414-1.414zm-7-7l-1.414 1.414 3 3 1.414-1.414zM24 49v2h5v-2zm-9 0v2h5v-2zm26-1v5h2v-5zm0 9v5h2v-5zm5.293-7.707l-3 3 1.414 1.414 3-3zm-7 7l-3 3 1.414 1.414 3-3zm5.414 0l-1.414 1.414 3 3 1.414-1.414zm-7-7l-1.414 1.414 3 3 1.414-1.414zM44 54v2h5v-2zm-9 0v2h5v-2z"/></svg>