<svg viewBox="0 0 64 64"><path d="M15 0c-3.222 0-5.109 1.144-6.05 2.4C8.006 3.656 8 5 8 5h2s-.007-.656.55-1.4C11.11 2.856 12.223 2 15 2c.917 0 1.415.366 1.896 1.107.482.741.815 1.872.99 3.041.352 2.34.12 4.752.12 4.752l-.006.05V40h2V11l-.006.1s.268-2.587-.13-5.248c-.2-1.331-.555-2.7-1.292-3.834S16.583 0 15 0z"/><path d="M26 0c-1.988 0-3.591.747-4.736 1.838-1.145 1.09-1.86 2.484-2.332 3.832C17.988 8.366 18 11 18 11h2s.012-2.366.818-4.67c.404-1.152 1-2.258 1.825-3.043C23.466 2.503 24.488 2 26 2c1.512 0 2.534.503 3.357 1.287.824.785 1.421 1.891 1.825 3.043C31.988 8.634 32 11 32 11v29l.002-.07s-.283 3.745 1.604 7.517C35.492 51.22 39.708 55 48 55v-2c-7.708 0-10.992-3.22-12.605-6.447-1.614-3.228-1.397-6.483-1.397-6.483l.002-.035V11s.012-2.634-.932-5.33c-.471-1.348-1.187-2.742-2.332-3.832C29.591.748 27.988 0 26 0z"/><path d="M48 39c-1.611 0-4.774.245-7.65 2.025C37.474 42.805 35 46.227 35 52c0 .417.06 1.05-.041 2.04-.1.989-.361 2.207-.97 3.37C32.768 59.737 30.243 62 24 62v2c6.756 0 10.23-2.737 11.762-5.66.765-1.462 1.067-2.931 1.185-4.098.119-1.166.053-2.159.053-2.242 0-5.227 2.026-7.806 4.4-9.275C43.774 41.255 46.611 41 48 41zm0 0v2c3.326 0 6 2.674 6 6s-2.674 6-6 6v2c4.406 0 8-3.594 8-8 0-4.406-3.594-8-8-8z"/></svg>