<svg viewBox="0 0 64 64"><path d="M36.195 22.406l-14 19L23 43h4.834l-1.822 11.848 1.793.746 14-19L41 35h-4.834l1.822-11.848zm-.802 4.46l-1.381 8.982L35 37h4.021L28.607 51.135l1.381-8.983L29 41h-4.021z"/><path d="M34 2C23.77 2 14.514 8.373 12.256 18H11C4.674 18 0 23.79 0 30s4.79 11 11 11h7v-2h-7c-5.207 0-9-3.793-9-9s3.91-10 9-10h2.83l.152-.814C15.684 10.13 24.322 4 34 4c10.913 0 20 8.146 20 19v1h1c3.917 0 7 3.937 7 8 0 4.063-2.937 7-7 7h-9v2h9c5.067 0 9-3.933 9-9 0-4.744-3.38-9.213-8.082-9.783C55.478 10.646 45.647 2 34 2z"/></svg>