<svg viewBox="0 0 64 64"><path d="M36 10c-9.422 0-17.66 6.162-19.748 15H15C9.156 25 5 30.283 5 36s4.283 10 10 10h41c2.319 0 4.352-.793 5.78-2.22C63.206 42.351 64 40.318 64 38s-.754-4.737-2.113-6.65c-1.187-1.671-2.922-2.916-4.987-3.221C56.375 17.52 46.656 10 36 10zm0 2c9.996 0 19 7.131 19 17v1h1c1.712 0 3.163.969 4.256 2.508C61.349 34.047 62 36.129 62 38s-.612 3.338-1.637 4.363C59.338 43.388 57.871 44 56 44H15c-4.76 0-8-3.24-8-8s3.368-9 8-9h2.83l.152-.814C19.541 17.894 27.176 12 36 12z"/><path d="M14 8c-.895 0-1.762.092-2.6.25l-1.453.275.795 1.246A7.931 7.931 0 0112 14.062a7.984 7.984 0 01-10.648 7.542l-1.393-.489.062 1.473A13.949 13.949 0 006.465 33.8l1.078-1.684a12.076 12.076 0 01-3.658-3.658c-.887-1.386-1.394-3-1.647-4.701.587.11 1.142.305 1.762.305 5.511 0 10-4.49 10-10 0-1.43-.388-2.743-.932-3.973.312-.026.615-.09.932-.09 4.258 0 7.982 2.209 10.115 5.541l1.684-1.08A13.996 13.996 0 0014 8zm.105 51.553l-1 2 1.79.894 1-2zm10 0l-1 2 1.79.894 1-2zm10 0l-1 2 1.79.894 1-2zm10 0l-1 2 1.79.894 1-2zm-26-12l-1 2 1.79.894 1-2zm10 0l-1 2 1.79.894 1-2zm10 0l-1 2 1.79.894 1-2zm10 0l-1 2 1.79.894 1-2zm-38 6l-1 2 1.79.894 1-2zm10 0l-1 2 1.79.894 1-2zm10 0l-1 2 1.79.894 1-2zm10 0l-1 2 1.79.894 1-2z"/></svg>