<svg viewBox="0 0 64 64"><path d="M32 0C14.339 0 0 14.339 0 32s14.339 32 32 32 32-14.339 32-32S49.661 0 32 0zm0 2c16.58 0 30 13.42 30 30S48.58 62 32 62 2 48.58 2 32 15.42 2 32 2z"/><path d="M32 27c-2.75 0-5 2.25-5 5s2.25 5 5 5 5-2.25 5-5-2.25-5-5-5zm0 2c1.669 0 3 1.331 3 3s-1.331 3-3 3-3-1.331-3-3 1.331-3 3-3z"/><path d="M50.246 13.754l-1.428.262s-5.23.963-11.06 2.517c-2.915.777-5.982 1.703-8.647 2.742-2.664 1.04-4.917 2.146-6.302 3.532-5.07 5.07-5.068 13.316 0 18.384 5.067 5.069 13.314 5.07 18.382 0 1.386-1.384 2.494-3.638 3.534-6.302 1.04-2.664 1.964-5.732 2.742-8.647 1.555-5.83 2.517-11.06 2.517-11.06zm-2.574 2.574c-.221 1.157-.82 4.453-2.139 9.399-.765 2.87-1.675 5.882-2.672 8.435-.996 2.554-2.125 4.657-3.084 5.615a10.982 10.982 0 01-15.554 0 10.985 10.985 0 010-15.556c.958-.959 3.061-2.086 5.615-3.082 2.553-.997 5.563-1.909 8.433-2.674 4.947-1.319 8.244-1.916 9.4-2.137z"/></svg>