<svg viewBox="0 0 64 64"><path d="M30.338.041c-5.929.381-11.573 3.6-14.799 9.104-5.16 8.804-2.2 20.153 6.604 25.314l1.011-1.725c-7.87-4.614-10.502-14.706-5.888-22.578C21.88 2.283 31.972-.349 39.844 4.266c7.87 4.614 10.504 14.706 5.89 22.578l-.039.068-.097.166v.008a159.888 159.888 0 00-1.54 2.834 166.77 166.77 0 00-3.665 7.332C37.724 42.956 35 49.558 35 54h2c0-3.558 2.575-10.279 5.205-15.9a165.372 165.372 0 015.145-10.051l.087-.154.022-.04c5.16-8.804 2.2-20.153-6.604-25.314a18.397 18.397 0 00-10.517-2.5z"/><path d="M19 32c-5.511 0-10 4.489-10 10s4.489 10 10 10 10-4.489 10-10-4.489-10-10-10zm0 2c4.43 0 8 3.57 8 8s-3.57 8-8 8-8-3.57-8-8 3.57-8 8-8zm16 20c0 5.511 4.489 10 10 10 3.917 0 7.322-2.261 8.959-5.555l-1.791-.89A7.994 7.994 0 0145 62c-4.43 0-8-3.57-8-8z"/></svg>