<svg viewBox="0 0 64 64"><path d="M1.707 23.293L.293 24.707 7.586 32 .293 39.293l1.414 1.414L10.414 32zm60.586 0L53.586 32l8.707 8.707 1.414-1.414L56.414 32l7.293-7.293zM32 53.586l-8.707 8.707 1.414 1.414L32 56.414l7.293 7.293 1.414-1.414zM24.707.293l-1.414 1.414L32 10.414l8.707-8.707L39.293.293 32 7.586zM5 48v2h9v9h2V48zM48 5v11h11v-2h-9V5z"/><path d="M48.293 14.293l-11 11 1.414 1.414 11-11zm-23 23l-11 11 1.414 1.414 11-11zM14 5v9H5v2h11V5zm34 43v11h2v-9h9v-2z"/><path d="M38.707 37.293l-1.414 1.414 11 11 1.414-1.414zm-23-23l-1.414 1.414 11 11 1.414-1.414zM40 31v2h15v-2zM9 31v2h15v-2zm22 9v15h2V40zm0-31v15h2V9z"/><path d="M32 23c-4.959 0-9 4.041-9 9s4.041 9 9 9 9-4.041 9-9-4.041-9-9-9zm0 2c3.878 0 7 3.122 7 7s-3.122 7-7 7-7-3.122-7-7 3.122-7 7-7z"/></svg>