<svg viewBox="0 0 64 64"><path d="M13 0C7.767 0 4.364 1.916 2.432 4.676.499 7.436 0 10.889 0 14c0 6.556 5.293 11.707 5.293 11.707l1.414-1.414S2 19.444 2 14c0-2.889.5-5.936 2.068-8.176S8.233 2 13 2c3.036 0 5.557 1.206 7.81 3.742 2.254 2.536 4.176 6.437 5.698 11.662C29.55 27.854 31 43.547 31 64h2c0-20.547-1.426-36.354-4.57-47.154-1.573-5.4-3.573-9.562-6.123-12.432C19.756 1.544 16.589 0 13 0z"/><path d="M51 0c-3.59 0-6.756 1.544-9.307 4.414-2.55 2.87-4.55 7.032-6.123 12.432C32.426 27.646 31 43.453 31 64h2c0-20.453 1.45-36.146 4.492-46.596 1.522-5.225 3.444-9.126 5.697-11.662C45.443 3.206 47.964 2 51 2c4.767 0 7.364 1.584 8.932 3.824C61.499 8.064 62 11.111 62 14c0 5.444-4.707 10.293-4.707 10.293l1.414 1.414S64 20.556 64 14c0-3.111-.5-6.564-2.432-9.324S56.233 0 51 0z"/></svg>