<svg viewBox="0 0 64 64"><path d="M36 15c-9.422 0-17.66 6.162-19.748 15H15C9.156 30 5 35.283 5 41s4.283 10 10 10h41c2.319 0 4.352-.793 5.78-2.22C63.206 47.351 64 45.318 64 43s-.754-4.737-2.113-6.65c-1.187-1.671-2.922-2.916-4.987-3.221C56.375 22.52 46.656 15 36 15zm0 2c9.996 0 19 7.131 19 17v1h1c1.712 0 3.163.969 4.256 2.508C61.349 39.047 62 41.129 62 43s-.612 3.338-1.637 4.363C59.338 48.388 57.871 49 56 49H15c-4.76 0-8-3.24-8-8s3.368-9 8-9h2.83l.152-.814C19.541 22.894 27.176 17 36 17z"/><path d="M22 13c-7.72 0-14 6.28-14 14 0 2.76.841 4.48 2.158 6.54l1.684-1.08C10.572 30.478 10 29.395 10 27c0-6.64 5.36-12 12-12 2.79 0 5.346.947 7.383 2.54l1.232-1.575A13.957 13.957 0 0022 13zM0 26v2h6v-2zM21 5v6h2V5zM4.707 8.293L3.293 9.707l6 6 1.414-1.414z"/></svg>