<svg viewBox="0 0 64 64"><path d="M38 0c-2.23 0-4.013.802-5.3 1.982-1.289 1.181-2.103 2.7-2.64 4.176C28.988 9.11 29 12 29 12v40h2V12s.013-2.61.94-5.158c.463-1.275 1.149-2.505 2.11-3.387C35.014 2.573 36.23 2 38 2s2.987.573 3.95 1.455c.961.882 1.647 2.112 2.11 3.387C44.988 9.39 45 12 45 12v40s-.014 1.709.855 3.447C46.725 57.186 48.667 59 52 59h5v-2h-5c-2.667 0-3.725-1.186-4.355-2.447A6.534 6.534 0 0147 52V12s.013-2.89-1.06-5.842c-.537-1.475-1.351-2.995-2.64-4.176C42.014.802 40.23 0 38 0z"/><path d="M22 0c-2.21 0-3.985.802-5.268 1.982s-2.099 2.698-2.64 4.172C13.009 9.103 13 11.992 13 11.992V52h2V12c0-.012.035-2.609.97-5.154.47-1.276 1.159-2.509 2.118-3.39C19.048 2.572 20.252 2 22 2c1.748 0 2.953.573 3.912 1.455.96.882 1.649 2.115 2.117 3.39.938 2.552.971 5.163.971 5.163l2-.016s-.009-2.89-1.092-5.838c-.541-1.474-1.357-2.991-2.64-4.172C25.985.802 24.21 0 22 0z"/><path d="M6 1v2c1.792 0 3.027.533 3.984 1.33.957.798 1.631 1.898 2.088 3.041C12.987 9.658 13 12 13 12h2s.013-2.658-1.072-5.371c-.543-1.357-1.37-2.757-2.662-3.834C9.973 1.717 8.208 1 6 1zm46.707 51.293l-1.414 1.414L55.586 58l-4.293 4.293 1.414 1.414 5-5v-1.414z"/></svg>