<svg viewBox="0 0 64 64"><path d="M32 0C14.339 0 0 14.339 0 32s14.339 32 32 32 32-14.339 32-32S49.661 0 32 0zm0 2c16.58 0 30 13.42 30 30S48.58 62 32 62 2 48.58 2 32 15.42 2 32 2z"/><path d="M32 27c-2.75 0-5 2.25-5 5s2.25 5 5 5 5-2.25 5-5-2.25-5-5-5zm0 2c1.669 0 3 1.331 3 3s-1.331 3-3 3-3-1.331-3-3 1.331-3 3-3z"/><path d="M13.754 13.754l.262 1.428s.963 5.23 2.517 11.06c.777 2.915 1.703 5.983 2.742 8.647 1.04 2.664 2.146 4.918 3.532 6.302 5.07 5.07 13.316 5.068 18.384 0 5.069-5.067 5.07-13.315 0-18.384-1.384-1.385-3.638-2.492-6.302-3.532-2.664-1.039-5.732-1.964-8.647-2.742-5.83-1.554-11.06-2.517-11.06-2.517zm2.574 2.574c1.157.221 4.453.82 9.399 2.139 2.87.765 5.882 1.675 8.435 2.672 2.554.996 4.657 2.124 5.615 3.082a10.984 10.984 0 010 15.556 10.984 10.984 0 01-15.556 0c-.959-.957-2.086-3.062-3.082-5.615-.997-2.553-1.909-5.565-2.674-8.435-1.319-4.947-1.916-8.242-2.137-9.399z"/></svg>