<svg viewBox="0 0 64 64"><path d="M32-.002c-17.661 0-32 14.339-32 32s14.339 32 32 32 32-14.339 32-32-14.339-32-32-32zm0 2c16.58 0 30 13.42 30 30s-13.42 30-30 30-30-13.42-30-30 13.42-30 30-30z"/><path d="M32 26.998c-2.75 0-5 2.25-5 5s2.25 5 5 5 5-2.25 5-5-2.25-5-5-5zm0 2c1.669 0 3 1.331 3 3s-1.331 3-3 3-3-1.331-3-3 1.331-3 3-3z"/><path d="M31.998 19.006a12.958 12.958 0 00-9.191 3.8c-5.069 5.068-5.069 13.317.002 18.385 1.385 1.385 3.638 2.492 6.302 3.532 2.665 1.04 5.732 1.964 8.647 2.742a162.14 162.14 0 0011.06 2.517l1.426.264-.262-1.428s-.96-5.232-2.515-11.062c-.777-2.915-1.703-5.982-2.742-8.647-1.04-2.664-2.148-4.917-3.534-6.302a12.961 12.961 0 00-9.193-3.801zm0 1.986a10.97 10.97 0 017.78 3.229c.958.958 2.087 3.061 3.083 5.615.997 2.553 1.907 5.565 2.672 8.435 1.32 4.948 1.918 8.245 2.139 9.4-1.156-.22-4.454-.818-9.4-2.138-2.87-.765-5.88-1.677-8.434-2.674-2.554-.996-4.657-2.123-5.615-3.082a10.984 10.984 0 01-.002-15.556 10.965 10.965 0 017.777-3.229z"/></svg>