<svg version="1.0" viewBox="0 0 64 64"><path d="M0 14.586v44.828L22.414 37zm2 4.828L19.586 37 2 54.586z"/><g fill="none" stroke="#000" stroke-width="2" stroke-miterlimit="10"><path d="M61.586 55.586L63 57v-2"/><path stroke-dasharray="4,2" d="M63 53V20"/><path d="M63 19v-2l-1.414 1.414"/><path stroke-dasharray="3.736,1.868" d="M60.265 19.735l-15.19 15.19"/><path d="M44.414 35.586L43 37l1.414 1.414"/><path stroke-dasharray="3.736,1.868" d="M45.735 39.735l15.19 15.19"/></g><g fill="none" stroke="#000" stroke-width="2" stroke-miterlimit="10"><path d="M32 61v-2"/><path stroke-dasharray="4,2" d="M32 57V16"/><path d="M32 15v-2"/></g><path d="M56 2v10H46v2h11l1-1V2z"/><path d="M32 0C21.326 0 12.004 4.273 6.186 12.418l1.628 1.164C13.24 5.987 21.856 2 32 2c10.143 0 18.76 3.989 24.186 11.582l1.628-1.164C51.996 4.275 42.673 0 32 0z"/></svg>