<svg version="1.0" viewBox="0 0 64 64"><path d="M32 5c-8.73 0-16.65 2.214-22.453 5.865C3.743 14.516 0 19.685 0 25.5c0 5.814 3.743 10.984 9.547 14.635C15.35 43.785 23.27 46 32 46c8.73 0 16.65-2.214 22.453-5.865C60.257 36.484 64 31.315 64 25.5c0-5.814-3.743-10.984-9.547-14.635C48.65 7.215 40.73 5 32 5zm0 2c8.39 0 15.973 2.152 21.389 5.559C58.805 15.965 62 20.545 62 25.5c0 4.955-3.195 9.535-8.611 12.941C47.973 41.848 40.39 44 32 44c-8.39 0-15.973-2.152-21.389-5.559C5.195 35.035 2 30.455 2 25.5c0-4.955 3.195-9.535 8.611-12.941C16.027 9.152 23.61 7 32 7z"/><path d="M21 43c-1.837 0-3.516.486-4.797 1.34C14.922 45.194 14 46.49 14 48c0 1.51.922 2.806 2.203 3.66C17.484 52.514 19.163 53 21 53c1.837 0 3.516-.486 4.797-1.34C27.078 50.806 28 49.51 28 48c0-1.51-.922-2.806-2.203-3.66C24.516 43.486 22.837 43 21 43zm0 2c1.477 0 2.797.41 3.688 1.004C25.578 46.598 26 47.3 26 48s-.422 1.402-1.313 1.996C23.797 50.59 22.477 51 21 51c-1.477 0-2.797-.41-3.688-1.004C16.422 49.402 16 48.7 16 48s.422-1.402 1.313-1.996C18.203 45.41 19.523 45 21 45z"/><path d="M25.447 50.105l-.894 1.79s.288.132.666.605c.378.473.781 1.222.781 2.5s-.356 1.641-.6 1.824c-.244.183-.4.176-.4.176v2s.844-.007 1.6-.574c.756-.567 1.4-1.704 1.4-3.426 0-1.722-.597-2.973-1.219-3.75-.622-.777-1.334-1.145-1.334-1.145z"/></svg>