<svg version="1.0" viewBox="0 0 64 64"><path d="M9 35l8-23h1l8 23m-15-7h13m14 7l8-23h1l8 23m-15-7h13" fill="none" stroke="#000" stroke-width="2" stroke-miterlimit="10"/><g fill="none" stroke="#000" stroke-width="2" stroke-miterlimit="10"><path d="M32 6v2"/><path stroke-dasharray="4,2" d="M32 10v29"/><path d="M32 40v2"/></g><g fill="none" stroke="#000" stroke-width="2" stroke-miterlimit="10"><path d="M4 6v2"/><path stroke-dasharray="4,2" d="M4 10v29"/><path d="M4 40v2"/></g><g fill="none" stroke="#000" stroke-width="2" stroke-miterlimit="10"><path d="M60 6v2"/><path stroke-dasharray="4,2" d="M60 10v29"/><path d="M60 40v2"/></g><path d="M55.707 48.293l-1.414 1.414L60.586 56l-6.293 6.293 1.414 1.414 7-7v-1.414zm-47.414 0l-7 7v1.414l7 7 1.414-1.414L3.414 56l6.293-6.293z"/><path fill="none" stroke="#000" stroke-width="2" stroke-miterlimit="10" d="M62 56H2"/></svg>