<svg version="1.0" viewBox="0 0 64 64"><path d="M3.586 0L26 22.414 48.414 0H46zm4.828 2h35.172L26 19.586z"/><g fill="none" stroke="#000" stroke-width="2" stroke-miterlimit="10"><path d="M7.414 61.586L6 63h2"/><path stroke-dasharray="4,2" d="M10 63h33"/><path d="M44 63h2l-1.414-1.414"/><path stroke-dasharray="3.736,1.868" d="M43.265 60.265l-15.19-15.19"/><path d="M27.414 44.414L26 43l-1.414 1.414"/><path stroke-dasharray="3.736,1.868" d="M23.265 45.735l-15.19 15.19"/></g><g fill="none" stroke="#000" stroke-width="2" stroke-miterlimit="10"><path d="M2 32h2"/><path stroke-dasharray="4,2" d="M6 32h41"/><path d="M48 32h2"/></g><path d="M50 46v11l1 1h11v-2H52V46z"/><path d="M51.582 6.186l-1.164 1.628C58.013 13.24 62 21.856 62 32c0 10.143-3.989 18.76-11.582 24.186l1.164 1.628C59.725 51.996 64 42.673 64 32c0-10.674-4.273-19.996-12.418-25.814z"/></svg>