<svg version="1.0" viewBox="0 0 64 64"><path d="M36 24l8-23h1l8 23m-15-7h13" fill="none" stroke="#000" stroke-width="2" stroke-miterlimit="10"/><path d="M27 27v2h34v-2z"/><path d="M36 57l8-23h1l8 23m-15-7h13" fill="none" stroke="#000" stroke-width="2" stroke-miterlimit="10"/><path d="M27 60v2h34v-2zM5.707 54.293l-1.414 1.414 7 7h1.414l7-7-1.414-1.414L12 60.586zm5.586-28l-7 7 1.414 1.414L12 28.414l6.293 6.293 1.414-1.414-7-7z"/><path fill="none" stroke="#000" stroke-width="2" stroke-miterlimit="10" d="M12 62V27"/></svg>