<svg version="1.0" viewBox="0 0 64 64"><path d="M40 23v17H23v2h19V23zM0 1v2h2V2h1V0H0zm5 1h4V0H5zm6 0h4V0h-4zm6 0h4V0h-4zm6 0h4V0h-4zm6 0h4V0h-4zm6 0h4V0h-4zm5 3h2V1h-2zM0 9h2V5H0zm40 2h2V7h-2zM0 15h2v-4H0zm40 2h2v-4h-2zM0 21h2v-4H0zm40 2h2v-4h-2zM0 27h2v-4H0zm0 6h2v-4H0zm0 6h2v-4H0zm1 3h4v-2H1zm6 0h4v-2H7zm6 0h4v-2h-4zm6 0h4v-2h-4z"/><path d="M41 24h4v-2h-4zm6 0h4v-2h-4zm6 0h4v-2h-4zm6 0h4v-2h-4zm3 5h2v-4h-2zm0 6h2v-4h-2zm0 6h2v-4h-2zm-40 4h2v-4h-2zm40 2h2v-4h-2zm-40 4h2v-4h-2zm40 2h2v-4h-2zm-40 4h2v-4h-2zm40 2h2v-4h-2zm-40 4h2v-4h-2zm40-1h-1v2h3v-3h-2zm-37 2h4v-2h-4zm6 0h4v-2h-4zm6 0h4v-2h-4zm6 0h4v-2h-4zm6 0h4v-2h-4zm6 0h4v-2h-4zM22 22v19h2V24h17v-2z"/></svg>