<svg version="1.0" viewBox="0 0 64 64"><path d="M62.064-.35L21.326 33.26 16.586 38 26 47.414l4.74-4.74.031-.037L64.35 1.936zm-1.757 4.043L29.256 41.33 26 44.586 19.414 38l3.26-3.26z"/><path d="M22.707 33.293l-1.414 1.414 8 8 1.414-1.414zm-4.949 3.737S13.57 38.07 9.4 41.2c-3.513 2.634-5.705 8.019-7.197 12.757-1.492 4.738-2.19 8.877-2.19 8.877L-.183 64H1c17.667 0 25.904-17.574 25.904-17.574l-1.808-.852S17.702 60.948 2.314 61.838c.18-.98.575-3.397 1.797-7.28 1.446-4.59 3.754-9.706 6.489-11.757 3.829-2.872 7.642-3.83 7.642-3.83z"/></svg>