<svg version="1.0" viewBox="0 0 64 64"><path d="M0 40v12h12V40zm2 2h8v8H2zm50-2v12h12V40zm2 2h8v8h-8zM26 12v12h12V12zm2 2h8v8h-8zM4 14c-2.197 0-4 1.803-4 4s1.803 4 4 4 4-1.803 4-4-1.803-4-4-4zm0 2c1.116 0 2 .884 2 2s-.884 2-2 2-2-.884-2-2 .884-2 2-2zm56-2c-2.197 0-4 1.803-4 4s1.803 4 4 4 4-1.803 4-4-1.803-4-4-4zm0 2c1.116 0 2 .884 2 2s-.884 2-2 2-2-.884-2-2 .884-2 2-2z"/><path d="M7 17v2h10.451c-4.894 2.28-7.96 6.193-9.736 10.084C4.985 35.064 5 41 5 41h2s.015-5.563 2.535-11.084C12.055 24.396 16.865 19 27 19v-2zm30 0v2c10.135 0 14.944 5.395 17.465 10.916C56.985 35.436 57 41 57 41h2s.015-5.937-2.715-11.916C54.51 25.193 51.443 21.281 46.55 19H57v-2z"/></svg>