<svg version="1.0" viewBox="0 0 64 64"><path d="M0 1v3h2V0H0zm4 1h4V0H4zm6 0h4V0h-4zm6 0h4V0h-4zm6 0h4V0h-4zm6 0h4V0h-4zm6 0h4V0h-4zm6 0h4V0h-4zm6 0h4V0h-4zm6 0h4V0h-4zm6 0h4V0h-4zm4 0v4h2V2zM0 10h2V6H0zm62 2h2V8h-2zM0 16h2v-4H0zm62 2h2v-4h-2zM0 22h2v-4H0zm62 2h2v-4h-2zM0 28h2v-4H0zm62 2h2v-4h-2zm0 6h2v-4h-2zm0 6h2v-4h-2zm0 6h2v-4h-2zm0 6h2v-4h-2zm0 6h2v-4h-2zm-26 4h4v-2h-4zm6 0h4v-2h-4zm6 0h4v-2h-4zm6 0h4v-2h-4zm6 0h4v-2h-4zM0 32v32h32V32zm2 2h28v28H2zM46 6v2h10v10h2V7l-1-1z"/><path d="M56.293 6.293l-16 16 1.414 1.414 16-16z"/></svg>