<svg version="1.0" viewBox="0 0 64 64"><path d="M53.59 0l-.293.29s-2.562 2.53-4.012 4.01L37.293 16.294l1.414 1.414L50.711 5.703l.004-.004a371.943 371.943 0 013.617-3.617c1.747.11 3.639 1.025 5.1 2.486 1.46 1.461 2.375 3.354 2.486 5.1l-3.625 3.625-12 12 1.414 1.414 12-12L64 10.414V10c0-2.538-1.3-4.99-3.154-6.846C58.99 1.3 56.539 0 54 0z"/><path d="M47 35.415l.708-.707L52.414 30 34 11.586 28.586 17zm0-2.829L31.415 17 34 14.414l15.587 15.587z"/><path d="M33.27 21.316L3 53.606v1.98L-.414 59 5 64.414 8.414 61h1.98l32.29-30.27-1.368-1.46L9.606 59h-2.02L5 61.586 2.414 59 5 56.414v-2.02l29.73-31.71z"/></svg>