<svg version="1.0" viewBox="0 0 64 64"><path d="M0 52v12h12V52zm2 2h8v8H2zM52 0v12h12V0zm2 2h8v8h-8z"/><g fill="none" stroke="#000" stroke-width="2" stroke-miterlimit="10"><path d="M44 22v-2h-2"/><path stroke-dasharray="4,2" d="M40 20H23"/><path d="M22 20h-2v2"/><path stroke-dasharray="4,2" d="M20 24v17"/><path d="M20 42v2h2"/><path stroke-dasharray="4,2" d="M24 44h17"/><path d="M42 44h2v-2"/><path stroke-dasharray="4,2" d="M44 40V23"/></g><path d="M19.293 43.293l-9 9 1.414 1.414 9-9zm33-33l-9 9 1.414 1.414 9-9zM25 31v2h14v-2z"/></svg>