<svg version="1.0" viewBox="0 0 64 64"><path d="M32 11c-8.735 0-16.658 2.273-22.463 6.018C3.733 20.762 0 26.058 0 32s3.733 11.238 9.537 14.982C15.342 50.727 23.265 53 32 53c8.735 0 16.658-2.273 22.463-6.018C60.267 43.238 64 37.942 64 32s-3.733-11.238-9.537-14.982C48.658 13.273 40.735 11 32 11zm0 2c8.386 0 15.964 2.204 21.379 5.697C58.794 22.191 62 26.896 62 32c0 5.104-3.206 9.81-8.621 13.303C47.964 48.796 40.386 51 32 51c-8.386 0-15.964-2.204-21.379-5.697C5.206 41.809 2 37.104 2 32c0-5.104 3.206-9.81 8.621-13.303C16.036 15.204 23.614 13 32 13z"/><path d="M1 31v2h62v-2z"/><path d="M31 12v40h2V12z"/></svg>