<svg viewBox="0 0 64 64"><path d="M15 0v27c0 2.666 1.847 4.99 4.807 6.543C22.767 35.097 26.909 36 32 36c5.09 0 9.234-.903 12.193-2.457C47.153 31.989 49 29.666 49 27V0zm2 2h30v25c0 1.752-1.181 3.43-3.736 4.771C40.708 33.113 36.85 34 32 34s-8.708-.887-11.264-2.229C18.181 30.43 17 28.751 17 27zm3 60v2h24v-2z"/><path d="M31 35v28h2V35zM6 6v1s-.014 2.459 1.23 4.947C8.475 14.436 11.167 17 16 17v-2c-4.167 0-5.975-1.936-6.98-3.947A9.214 9.214 0 018.104 8H16V6zm42 0v2h7.896a9.214 9.214 0 01-.916 3.053C53.975 13.064 52.167 15 48 15v2c4.833 0 7.525-2.564 8.77-5.053C58.014 9.46 58 7 58 7V6z"/></svg>