<svg viewBox="0 0 64 64"><path d="M32.002-.113C14.276-.113-.114 14.277-.111 32.002c0 17.723 14.386 32.112 32.111 32.111C49.724 64.115 64.114 49.725 64.113 32 64.114 14.276 49.726-.113 32.002-.113zm0 2c16.644 0 30.112 13.47 30.111 30.113.001 16.645-13.47 30.115-30.113 30.113-16.645.001-30.112-13.467-30.111-30.111V32C1.886 15.355 15.356 1.887 32.002 1.887z"/><path d="M31 1v62h2V1z"/><path d="M1 31v2h62v-2z"/><path d="M29.383.213S15 11.533 15 32s14.383 31.787 14.383 31.787l1.234-1.574S17 51.533 17 32 30.617 1.787 30.617 1.787zm5.234 0l-1.234 1.574S47 12.467 47 32 33.383 62.213 33.383 62.213l1.234 1.574S49 52.467 49 32 34.617.213 34.617.213z"/><path d="M8.895 11.553l-1.79.894s1.409 2.76 5.202 5.375C16.1 20.438 22.325 23 32 23s15.9-2.562 19.693-5.178c3.793-2.616 5.202-5.375 5.202-5.375l-1.79-.894s-1.091 2.24-4.548 4.625C47.1 18.562 41.325 21 32 21s-15.1-2.438-18.557-4.822c-3.457-2.384-4.548-4.625-4.548-4.625zM32 41c-9.675 0-15.9 2.562-19.693 5.178-3.793 2.616-5.202 5.375-5.202 5.375l1.79.894s1.091-2.24 4.548-4.625C16.9 45.438 22.675 43 32 43s15.1 2.438 18.557 4.822c3.457 2.384 4.548 4.625 4.548 4.625l1.79-.894s-1.409-2.76-5.202-5.375C47.9 43.562 41.675 41 32 41z"/></svg>