<svg viewBox="0 0 64 64"><path d="M32 0C19.862 0 10 9.862 10 22c0 7.698 3.995 14.528 10 18.467V46h24l.002-5.639C49.997 36.431 54 29.697 54 22 54 9.862 44.138 0 32 0zm0 2c11.058 0 20 8.942 20 20 0 7.211-3.81 13.519-9.523 17.041l-.475.293L42 44H22v-4.559l-.477-.293C15.815 35.633 12 29.213 12 22c0-11.058 8.942-20 20-20z"/><path d="M25.988 24.852l-1.976.296 3 20 1.976-.296zm12.024 0l-3 20 1.976.296 3-20z"/><path d="M32 24.586l-3.094 3.094L25.6 25.2l-1.2 1.6 4.694 3.52L32 27.414l2.906 2.906L39.6 26.8l-1.2-1.6-3.306 2.48zM20 44v8h24v-8zm2 2h20v4H22z"/><path d="M22 50v8h20v-8zm2 2h16v4H24z"/><path d="M24 56v8h16v-8zm2 2h12v4H26z"/></svg>