<svg viewBox="0 0 64 64"><path d="M35.559 3.645l-20.9 41.802 29.806 14.905.437-.922 19.416-40.873zm.88 2.71l25.243 13.088-18.147 38.205-26.193-13.095z"/><path d="M28.45 4.64L-.31 19.554l18.82 40.775 13.91-6.457-.843-1.814-12.09 5.615-17.18-37.225L27.552 7.361 31 14.441l1.799-.875zm8.655 3.913l-1 2 1.79.894 1-2z"/><path d="M6.895 20.553l-1.79.894 1 2 1.79-.894zm35.21 32l-1 2 1.79.894 1-2zm-3.965-31.09a6.837 6.837 0 00-2.372.277c-1.52.45-2.898 1.396-3.649 2.785-1.681 3.118-.773 7.095.371 10.291a35.5 35.5 0 002.653 5.7l.283.47.549.014s2.877.075 6.14-.537c3.264-.613 7.079-1.862 8.766-4.988.685-1.272 1.067-2.847.95-4.391-.119-1.544-.82-3.136-2.356-3.965-1.297-.7-2.902-1.02-4.446-.877-.564.053-1.103.264-1.636.47-.126-1.869-1.165-3.647-2.918-4.593a5.662 5.662 0 00-2.334-.656zM38 23.465a3.711 3.711 0 011.525.416c1.753.945 2.504 2.957 1.594 4.644l1.762.95c.386-.717 1.22-1.139 2.334-1.243 1.115-.104 2.419.168 3.31.649.841.453 1.228 1.267 1.31 2.355.084 1.089-.221 2.373-.716 3.29-1.162 2.153-4.346 3.404-7.371 3.972-2.717.51-4.67.457-5.14.451-.24-.41-1.274-2.122-2.235-4.806-1.068-2.984-1.659-6.505-.492-8.668.43-.798 1.365-1.494 2.455-1.817A4.824 4.824 0 0138 23.465z"/></svg>