<svg viewBox="0 0 64 64"><path d="M29 38v6s-.006 4.685-.86 9.318c-.426 2.317-1.075 4.612-1.968 6.229C25.279 61.163 24.298 62 23 62v2h9v-2h-5.303c.426-.48.902-.9 1.225-1.484 1.075-1.946 1.74-4.401 2.187-6.834C31.006 48.815 31 44 31 44v-6zm4 0v6s-.006 4.815.89 9.682c.449 2.433 1.113 4.888 2.188 6.834.323.584.8 1.004 1.225 1.484H32v2h9v-2c-1.298 0-2.279-.837-3.172-2.453-.893-1.617-1.542-3.912-1.969-6.229C35.006 48.685 35 44 35 44v-6z"/><path d="M31.998 2.125c-7.961 0-14.436 6.476-14.436 14.438 0 2.37.736 4.504 1.752 6.478-1.517-.543-3.113-.918-4.816-.918-7.996 0-14.5 6.503-14.5 14.5s6.504 14.5 14.5 14.5c3.937 0 7.99-1.211 11.129-3.45C28.765 45.437 31 42.089 31 38h-2c0 3.369-1.787 6.085-4.535 8.045s-6.446 3.079-9.965 3.078h-.002c-6.916 0-12.5-5.583-12.5-12.5s5.584-12.5 12.5-12.5c2.481 0 4.783.731 6.73 1.979l1.301-1.49a12.36 12.36 0 01-2.966-8.05A12.42 12.42 0 0131.998 4.125c6.88 0 12.44 5.556 12.44 12.438 0 3.076-1.119 5.876-2.967 8.048l1.302 1.49a12.402 12.402 0 016.727-1.976c6.915 0 12.5 5.583 12.5 12.5s-5.585 12.5-12.5 12.5c-3.52 0-7.217-1.12-9.965-3.08S35 41.369 35 38h-2c0 4.088 2.235 7.435 5.373 9.674 3.138 2.238 7.19 3.451 11.127 3.451 7.995 0 14.5-6.503 14.5-14.5s-6.505-14.5-14.5-14.5c-1.703 0-3.298.374-4.816.918 1.016-1.975 1.754-4.11 1.754-6.48 0-7.963-6.479-14.438-14.44-14.438z"/></svg>