<svg viewBox="0 0 64 64"><path d="M36.707 33.293l-1.414 1.414 5 5 1.414-1.414z"/><path d="M64.415 55l-.707-.706L44 34.586l-7.413 7.413L57 62.414zm-2.829 0l-4.585 4.586-17.586-17.587L44 37.414zM7.846 2.74L4.74 5.846l7.06 11.767.907-.906 6.906-6.906zm.308 2.52l8.233 4.94-4.188 4.187-4.94-8.233z"/><path d="M15.707 12.293l-1.414 1.414 13 13 1.414-1.414z"/><path d="M49.5 3.063c-5.165-.001-8.593 1.288-10.705 3.382C36.683 8.54 36 11.333 36 14v3.59L2.611 51.479.62 58.309l2.967 2.793 6.857-1.698L44.41 26H48c2.667 0 5.471-.682 7.582-2.793C57.692 21.097 59 17.667 59 12.5v-1.572l-1.424.666-7.355 3.447-3.037-3.13 3.84-8.848zM47.879 5.28l-3.063 7.059 4.963 5.119 6.99-3.277c-.28 3.656-1.198 6.208-2.601 7.611C52.528 23.433 50.333 24 48 24h-4.41L9.432 57.596l-5.268 1.302-1.283-1.207 1.508-5.17L38 18.411V14c0-2.333.567-4.51 2.205-6.135 1.41-1.399 3.976-2.315 7.674-2.584z"/></svg>