<svg viewBox="0 0 64 64"><path d="M32 .006c-8.191 0-16.383 3.122-22.627 9.367-12.49 12.488-12.49 32.767 0 45.254 12.488 12.49 32.766 12.49 45.254 0 12.49-12.488 12.49-32.767 0-45.254C48.382 3.128 40.191.006 32 .006zm0 1.988c7.675 0 15.35 2.93 21.213 8.793v.002c11.725 11.723 11.725 30.698 0 42.422v.002c-11.724 11.726-30.702 11.726-42.426 0v-.002c-11.725-11.723-11.725-30.698 0-42.422v-.002A29.902 29.902 0 0132 1.994z"/><path d="M32 8.002C18.758 8.002 8.002 18.758 8.002 32S18.758 55.998 32 55.998 55.998 45.242 55.998 32 45.242 8.002 32 8.002zm0 2c12.162 0 21.998 9.836 21.998 21.998S44.162 53.998 32 53.998 10.002 44.162 10.002 32 19.838 10.002 32 10.002z"/><path d="M32 16c-8.825 0-16 7.175-16 16s7.175 16 16 16 16-7.175 16-16-7.175-16-16-16zm0 2c7.744 0 14 6.256 14 14s-6.256 14-14 14-14-6.256-14-14 6.256-14 14-14z"/><path d="M32 24.002c-4.406 0-7.998 3.592-7.998 7.998 0 4.406 3.592 7.998 7.998 7.998 4.406 0 7.998-3.592 7.998-7.998 0-4.406-3.592-7.998-7.998-7.998zm0 2A5.982 5.982 0 0137.998 32 5.982 5.982 0 0132 37.998 5.982 5.982 0 0126.002 32 5.982 5.982 0 0132 26.002z"/></svg>