<svg viewBox="0 0 64 64"><path d="M51.031 20.102l-1.533 1.283A53.762 53.762 0 0162.051 56h2a55.784 55.784 0 00-13.02-35.898z"/><path d="M8.05 0v2c16.658 0 31.543 7.536 41.448 19.385l1.533-1.281C40.761 7.818 25.311 0 8.051 0zm0 11.281v2c23.604 0 42.72 19.114 42.72 42.719h2c0-24.685-20.035-44.719-44.72-44.719z"/><path d="M8.05 22.564v2c17.373 0 31.436 14.064 31.436 31.436h2c0-18.454-14.982-33.436-33.435-33.436z"/><path d="M8.05 33.846v2c11.142 0 20.155 9.01 20.155 20.154h2c0-12.224-9.932-22.154-22.154-22.154zm0 14.104C3.617 47.95 0 51.564 0 56c0 4.435 3.616 8.05 8.05 8.05 4.435 0 8.052-3.615 8.052-8.05 0-4.435-3.617-8.05-8.051-8.05zm0 2A6.036 6.036 0 0114.103 56a6.036 6.036 0 01-6.051 6.05A6.036 6.036 0 012 56a6.036 6.036 0 016.05-6.05z"/></svg>