<svg viewBox="0 0 64 64"><path d="M6 56c0 1.468 1.05 2.642 2.506 3.568 1.455.926 3.435 1.698 5.85 2.348C19.183 63.216 25.747 64 33 64c7.252 0 13.816-.784 18.645-2.084 2.414-.65 4.394-1.422 5.85-2.348C58.948 58.642 60 57.468 60 56h-2c0 .465-.404 1.132-1.58 1.88-1.177.75-3.004 1.488-5.295 2.104C46.543 61.218 40.107 62 33 62c-7.107 0-13.543-.782-18.125-2.016-2.29-.616-4.118-1.354-5.295-2.103C8.404 57.132 8 56.465 8 56zm0-16c0 1.468 1.05 2.642 2.506 3.568 1.455.926 3.435 1.698 5.85 2.348C19.183 47.216 25.747 48 33 48c7.252 0 13.816-.784 18.645-2.084 2.414-.65 4.394-1.422 5.85-2.348C58.948 42.642 60 41.468 60 40h-2c0 .465-.404 1.132-1.58 1.88-1.177.75-3.004 1.488-5.295 2.104C46.543 45.218 40.107 46 33 46c-7.107 0-13.543-.782-18.125-2.016-2.29-.616-4.118-1.354-5.295-2.103C8.404 41.132 8 40.465 8 40zm0-16c0 1.468 1.05 2.642 2.506 3.568 1.455.926 3.435 1.698 5.85 2.348C19.183 31.216 25.747 32 33 32c7.252 0 13.816-.784 18.645-2.084 2.414-.65 4.394-1.422 5.85-2.348C58.948 26.642 60 25.468 60 24h-2c0 .465-.404 1.132-1.58 1.88-1.177.75-3.004 1.488-5.295 2.104C46.543 29.218 40.107 30 33 30c-7.107 0-13.543-.782-18.125-2.016-2.29-.616-4.118-1.354-5.295-2.103C8.404 25.132 8 24.465 8 24zM33 0c-7.252 0-13.816.784-18.645 2.084-2.414.65-4.394 1.422-5.85 2.348C7.052 5.358 6 6.532 6 8s1.051 2.642 2.506 3.568c1.455.926 3.435 1.698 5.85 2.348C19.183 15.216 25.747 16 33 16c7.252 0 13.816-.784 18.645-2.084 2.414-.65 4.394-1.422 5.85-2.348C58.948 10.642 60 9.468 60 8s-1.051-2.642-2.506-3.568c-1.455-.926-3.435-1.698-5.85-2.348C46.817.784 40.253 0 33 0zm0 2c7.107 0 13.543.782 18.125 2.016 2.29.616 4.118 1.354 5.295 2.103C57.596 6.868 58 7.535 58 8c0 .465-.404 1.132-1.58 1.88-1.177.75-3.004 1.488-5.295 2.104C46.543 13.218 40.107 14 33 14c-7.107 0-13.543-.782-18.125-2.016-2.29-.616-4.118-1.354-5.295-2.103C8.404 9.132 8 8.465 8 8c0-.465.404-1.132 1.58-1.88 1.177-.75 3.004-1.488 5.295-2.104C19.457 2.782 25.893 2 33 2z"/><path d="M6 8v48h2V8zm52 0v48h2V8z"/></svg>