<svg viewBox="0 0 64 64"><path d="M32 .006c-8.191 0-16.383 3.122-22.627 9.367-12.49 12.488-12.49 32.767 0 45.254 12.488 12.49 32.766 12.49 45.254 0 12.49-12.488 12.49-32.767 0-45.254C48.382 3.128 40.191.006 32 .006zm0 1.988c7.675 0 15.35 2.93 21.213 8.793v.002c11.725 11.723 11.725 30.698 0 42.422v.002c-11.724 11.726-30.702 11.726-42.426 0v-.002c-11.725-11.723-11.725-30.698 0-42.422v-.002A29.902 29.902 0 0132 1.994z"/><path d="M29 43v4h2v-4zm3-28c-3.111 0-5.31.497-6.824 1.557C23.662 17.617 23 19.277 23 21h2c0-1.278.338-2.116 1.324-2.807C27.31 17.503 29.111 17 32 17c2.3 0 4.038.681 5.203 1.74C38.368 19.8 39 21.25 39 23c0 1.5-1.241 3.066-2.64 4.232-1.4 1.166-2.807 1.873-2.807 1.873s-1.212.618-2.334 2.02C30.097 32.527 29 34.778 29 38v1h2v-1c0-2.778.903-4.527 1.781-5.625.878-1.098 1.666-1.48 1.666-1.48s1.593-.793 3.194-2.127C39.24 27.434 41 25.5 41 23c0-2.25-.868-4.3-2.453-5.74C36.962 15.819 34.7 15 32 15z"/></svg>