<svg viewBox="0 0 64 64"><path d="M32.002-.113C14.276-.113-.114 14.277-.111 32.002c0 17.723 14.386 32.112 32.111 32.111C49.724 64.115 64.114 49.725 64.113 32 64.114 14.276 49.726-.113 32.002-.113zm0 2c16.644 0 30.112 13.47 30.111 30.113.001 16.645-13.47 30.115-30.113 30.113-16.645.001-30.112-13.467-30.111-30.111V32C1.886 15.355 15.356 1.887 32.002 1.887z"/><path d="M32 9.006c-5.888 0-11.777 2.243-16.264 6.73A22.941 22.941 0 009 32h2a20.921 20.921 0 016.15-14.85c8.21-8.21 21.49-8.21 29.7 0A20.921 20.921 0 0153 32h2c0-5.884-2.25-11.777-6.736-16.264A22.934 22.934 0 0032 9.006z"/><path d="M24.756 25.346l-1.512 1.308 6.332 7.332 1.514-1.306z"/><path d="M32 32c-1.645 0-3 1.355-3 3s1.355 3 3 3 3-1.355 3-3-1.355-3-3-3zm0 2c.564 0 1 .436 1 1 0 .564-.436 1-1 1-.564 0-1-.436-1-1 0-.564.436-1 1-1z"/></svg>