<svg viewBox="0 0 64 64"><path d="M25 8V1h14v7m-25 2v53h36V10M10 9h44" fill="none" stroke="#000" stroke-width="2" stroke-miterlimit="10"/><path d="M22 36c0 2.48.983 4.93 2.582 6.805C26.181 44.679 28.445 46 31 46h4v-2h-4c-1.863 0-3.6-.971-4.896-2.492C24.807 39.988 24 37.938 24 36z"/><path d="M32.8 40.4l-1.6 1.2 2.55 3.4-2.55 3.4 1.6 1.2 3-4v-1.2zM29 26v2h4c1.863 0 3.6.971 4.896 2.492C39.193 32.012 40 34.062 40 36h2c0-2.48-.983-4.93-2.582-6.805C37.819 27.321 35.555 26 33 26z"/><path d="M31.2 22.4l-3 4v1.2l3 4 1.6-1.2-2.55-3.4 2.55-3.4z"/></svg>