<svg viewBox="0 0 64 64"><path d="M35.559 3.645l-20.9 41.802 29.806 14.905.437-.922 19.416-40.873zm.88 2.71l25.243 13.088-18.147 38.205-26.193-13.095z"/><path d="M28.45 4.64L-.31 19.554l18.82 40.775 13.91-6.457-.843-1.814-12.09 5.615-17.18-37.225L27.552 7.361 31 14.441l1.799-.875zm17.429 17.862l-12.934 5.879 1.176 14.117 1.293-.588 11.64-5.29zm-1.758 2.996l.824 9.883-9.066 4.121-.824-9.883zM37.105 8.553l-1 2 1.79.894 1-2z"/><path d="M6.895 20.553l-1.79.894 1 2 1.79-.894zm35.21 32l-1 2 1.79.894 1-2z"/></svg>