<svg viewBox="0 0 64 64"><path d="M32 5C17.1 5 5 17.1 5 32s12.1 27 27 27 27-12.1 27-27S46.9 5 32 5zm0 2c13.819 0 25 11.181 25 25S45.819 57 32 57 7 45.819 7 32 18.181 7 32 7z"/><path d="M31 20v12.617l8.553 4.278.894-1.79L33 31.383V20zm-9.713 35.299l-6.994 6.994 1.414 1.414 6.994-6.994zm21.426 0l-1.414 1.414 6.994 6.994 1.414-1.414zM4.672 2.914L-.086 7.672l.106.523L2.387 20.03 17.029 5.387zm.656 2.172l7.645 1.527-9.36 9.36-1.527-7.645zm54-2.172l-.523.106L46.97 5.387l14.642 14.642 2.473-12.357zm-.656 2.172l3.242 3.242-1.527 7.645-9.36-9.36z"/></svg>