<svg viewBox="0 0 64 64"><path d="M13 0v6h38V0zm2 2h34v2H15zm-2 56v6h38v-6zm2 2h34v2H15z"/><path d="M46 5v15c0 .347-.291 1.05-1.012 1.906-.72.856-1.81 1.85-3.14 2.905-2.66 2.109-6.272 4.478-9.897 6.853s-7.263 4.756-10.04 6.959c-1.39 1.102-2.565 2.155-3.43 3.182C17.614 42.832 17 43.847 17 45v14h2V45c0-.347.291-1.05 1.012-1.906.72-.856 1.81-1.85 3.14-2.905 2.66-2.109 6.272-4.478 9.897-6.853s7.263-4.756 10.04-6.959c1.39-1.102 2.565-2.155 3.43-3.182C47.386 22.168 48 21.153 48 20V5z"/><path d="M17 5v15c0 1.153.615 2.168 1.48 3.195.866 1.027 2.041 2.08 3.43 3.182 2.778 2.203 6.416 4.584 10.041 6.959s7.237 4.744 9.897 6.853c1.33 1.055 2.42 2.05 3.14 2.905C45.71 43.949 46 44.653 46 45v14h2V45c0-1.153-.615-2.168-1.48-3.195-.866-1.027-2.041-2.08-3.43-3.182-2.778-2.203-6.416-4.584-10.041-6.959s-7.237-4.744-9.897-6.853c-1.33-1.055-2.42-2.05-3.14-2.905C19.29 21.051 19 20.347 19 20V5z"/></svg>