<svg viewBox="0 0 64 64"><path d="M52.979-.016a10.974 10.974 0 00-6.6 2.205l-.057.043-13.045 13.063-.002.004c-1.925 1.965-3.284 4.676-3.283 7.703.001 1.563.331 3.056.922 4.404l1.832-.804A8.955 8.955 0 0131.992 23c0-2.422 1.098-4.651 2.705-6.295l.002-.002.004-.006L47.61 3.773a8.95 8.95 0 015.371-1.789 8.985 8.985 0 019.006 8.995 8.942 8.942 0 01-1.78 5.373l-11.964 11.98-.043.057a8.98 8.98 0 01-7.2 3.605 8.966 8.966 0 01-3.598-.744l-.797 1.832a10.998 10.998 0 0013.193-3.494l-.091.107 12.041-12.058.041-.057a10.96 10.96 0 002.197-6.603C63.983 4.914 59.042-.02 52.98-.016z"/><path d="M32.746 26.604l-1.832.8c.057.13.12.264.19.405l1.787-.895a6.728 6.728 0 01-.145-.31zm-9.748 3.402a10.97 10.97 0 00-6.6 2.205l-.056.043L3.299 45.316l-.004.004C1.369 47.285.013 49.996.015 53.023.02 59.086 4.96 64.02 11.024 64.016a10.994 10.994 0 008.795-4.407l-.091.106 12.04-12.057.044-.056a10.964 10.964 0 002.195-6.604 10.966 10.966 0 00-.918-4.398l-1.832.802a8.956 8.956 0 01.75 3.598 8.934 8.934 0 01-1.78 5.371l-11.964 11.98-.043.057a8.978 8.978 0 01-7.198 3.608 8.985 8.985 0 01-9.005-8.995c-.002-2.425 1.098-4.657 2.709-6.3l-.008.006L17.63 33.793A8.942 8.942 0 0123 32.006a8.944 8.944 0 013.598.746l.798-1.832a10.95 10.95 0 00-4.398-.914z"/><path d="M40.287 22.287L22.3 40.3l1.414 1.414L41.7 23.7z"/></svg>