<svg viewBox="0 0 64 64"><path d="M32-.15l-.494.28s-7.331 4.163-14.67 10.677C9.496 17.32 2 26.218 2 36c0 8.25 7.08 16 16 16 3.78 0 6.937-1.62 9.152-4.17.765-.88 1.273-1.985 1.819-3.055a52.915 52.915 0 01-.83 8.543c-.427 2.317-1.076 4.612-1.97 6.229C25.28 61.163 24.299 62 23 62v2h18v-2c-1.298 0-2.279-.837-3.172-2.453-.893-1.617-1.542-3.912-1.969-6.229a50.808 50.808 0 01-.81-8.013C37.538 49.413 42.023 52 47 52c8.92 0 15-7.837 15-16 0-9.782-7.497-18.68-14.836-25.193C39.825 4.293 32.494.13 32.494.13zm0 2.332c.726.42 7.07 4.115 13.836 10.12C52.996 18.66 60 27.263 60 36c0 7.179-5.252 14-13 14-6.492 0-12-4.85-12-12h-2v6s-.006 4.815.89 9.682c.449 2.433 1.113 4.888 2.188 6.834.323.584.8 1.004 1.225 1.484H26.697c.426-.48.902-.9 1.225-1.484 1.075-1.946 1.74-4.401 2.187-6.834C31.006 48.815 31 44 31 44v-6l-1.996-.084c-.287 3.385-1.478 6.434-3.361 8.602C23.759 48.685 21.22 50 18 50c-7.747 0-14-6.908-14-14 0-8.738 7.003-17.341 14.164-23.697C24.93 6.297 31.274 2.6 32 2.182z"/></svg>