<svg viewBox="0 0 64 64"><path d="M31 13v50h2V13zM9.287 46.043l-1.244.67-3 10 1.914.574 2.713-9.043 9.043 2.713.574-1.914zm45.426 0l-10 3 .574 1.914 9.125-2.736 3.66 9.15 1.856-.742-4-10z"/><path d="M53.807 46.676C50.749 55.572 42.154 62 32 62c-10.153 0-18.746-6.427-21.805-15.322l-1.892.65C11.64 57.033 21.003 64 32 64c10.998 0 20.361-6.97 23.697-16.676zM23 16v2h18v-2zm9-16c-3.854 0-7 3.146-7 7s3.146 7 7 7 7-3.146 7-7-3.146-7-7-7zm0 2c2.773 0 5 2.227 5 5s-2.227 5-5 5-5-2.227-5-5 2.227-5 5-5z"/></svg>