<svg viewBox="0 0 64 64"><path d="M11 27C4.937 27 0 31.937 0 38s4.937 11 11 11h3V27zm0 2h1v18h-1c-4.983 0-9-4.017-9-9s4.017-9 9-9zm39-2v22h3c6.063 0 11-4.937 11-11s-4.937-11-11-11zm2 2h1c4.983 0 9 4.017 9 9s-4.017 9-9 9h-1z"/><path d="M32 5c-9.78 0-14.96 4.239-17.484 8.49C11.99 17.742 12 22 12 22v9h2v-9s.009-3.742 2.234-7.49C18.46 10.76 22.781 7 32 7c9.22 0 13.54 3.761 15.766 7.51C49.99 18.258 50 22 50 22v6h2v-6s.009-4.258-2.516-8.51C46.96 9.24 41.781 5 32 5zm18 43v4.322l-13 5.201V54H27v6h9.193L52 53.678V48zm-21 8h6v2h-6z"/></svg>