<svg viewBox="0 0 64 64"><path d="M14 26C6.28 26 0 32.28 0 40s6.28 14 14 14c4.732 0 8.87-2.4 11.402-6h13.196c2.533 3.6 6.67 6 11.402 6 7.72 0 14-6.28 14-14s-6.28-14-14-14zm0 2h36c6.64 0 12 5.36 12 12s-5.36 12-12 12c-4.253 0-7.966-2.21-10.102-5.54l-.294-.46H24.396l-.294.46C21.967 49.79 18.252 52 14 52 7.36 52 2 46.64 2 40s5.36-12 12-12z"/><path d="M13 32v16h2V32z"/><path d="M6 39v2h16v-2zm44-7.01c-4.406 0-8 3.594-8 8 0 4.407 3.594 8 8 8 4.406 0 8-3.593 8-8 0-4.406-3.594-8-8-8zm0 2c3.326 0 6 2.675 6 6 0 3.326-2.674 6-6 6s-6-2.674-6-6c0-3.325 2.674-6 6-6z"/><path d="M49 33v14h2V33z"/><path d="M43 39v2h14v-2zm-8-28v4h10v5H31v7h2v-5h14v-9H37v-2z"/></svg>