<svg viewBox="0 0 64 64"><path d="M31 40v24h2V40zm0-40v24h2V0zm7.629 36.223l-1.258 1.554 21 17 1.258-1.554zm-33-27L4.37 10.777l21 17 1.258-1.554zm52.766.982l-21 16 1.21 1.59 21-16zm-33 26l-21 16 1.21 1.59 21-16z"/><path d="M32 23c-4.959 0-9 4.041-9 9s4.041 9 9 9 9-4.041 9-9-4.041-9-9-9zm0 2c3.878 0 7 3.122 7 7s-3.122 7-7 7-7-3.122-7-7 3.122-7 7-7z"/><path d="M32 7C18.205 7 7 18.205 7 32s11.205 25 25 25 25-11.205 25-25S45.795 7 32 7zm0 2c12.714 0 23 10.286 23 23S44.714 55 32 55 9 44.714 9 32 19.286 9 32 9z"/></svg>