<svg viewBox="0 0 64 64"><path d="M10.139 0L4.012 40.852l1.976.296L11.861 2H52.14l5.873 39.148 1.976-.296L53.861 0z"/><path d="M4 40v24h56V40zm2 2h52v20H6z"/><path d="M48 48c-2.197 0-4 1.803-4 4s1.803 4 4 4 4-1.803 4-4-1.803-4-4-4zm0 2c1.116 0 2 .884 2 2s-.884 2-2 2-2-.884-2-2 .884-2 2-2zM32 14c-3.661 0-6.794 2.895-7.742 6.188-.958.21-1.781.677-2.29 1.312-.641.803-.968 1.667-.968 2.5 0 1.167.307 2.221 1.043 2.957C22.779 27.693 23.833 28 25 28h14c1.12 0 2.161-.31 2.904-1.033C42.647 26.244 43 25.186 43 24c0-.833-.327-1.697-.969-2.5-.495-.619-1.293-1.072-2.217-1.295-.225-1.741-1.003-3.283-2.285-4.33C36.044 14.662 34.076 14 32 14zm0 2c1.647 0 3.18.538 4.264 1.424C37.348 18.31 38 19.5 38 21v1h1c.667 0 1.111.303 1.469.75.358.447.531 1.083.531 1.25 0 .814-.205 1.256-.49 1.533-.285.277-.743.467-1.51.467H25c-.833 0-1.279-.193-1.543-.457S23 24.833 23 24c0-.167.173-.803.531-1.25.358-.447.802-.75 1.469-.75h.824l.158-.809C26.466 18.7 29.308 16 32 16z"/></svg>