<svg viewBox="0 0 64 64"><g fill="none" stroke="#000" stroke-width="2" stroke-miterlimit="10"><path d="M32 1c-.672 0-1.339.021-2 .063"/><path stroke-dasharray="4.0593,2.0296" d="M27.979 1.258C12.758 3.229 1 16.241 1 32c0 16.104 12.279 29.34 27.986 30.855"/><path d="M30 62.937A31.54 31.54 0 0032 63"/></g><path d="M32 0v2c16.58 0 30 13.42 30 30 0 6.48-2.055 12.467-5.543 17.37l-5.543 5.544 1.414 1.414 5.678-5.68.049-.066A31.869 31.869 0 0064 32C64 14.339 49.661 0 32 0z"/><path d="M50 45v11l1 1h11v-2H52V45z"/></svg>