<svg viewBox="0 0 64 64"><g fill="none" stroke="#000" stroke-width="2" stroke-miterlimit="10"><path d="M32 1c.672 0 1.339.021 2 .063"/><path stroke-dasharray="4.0593,2.0296" d="M36.021 1.258C51.242 3.229 63 16.241 63 32c0 16.104-12.279 29.34-27.986 30.855"/><path d="M34 62.937A31.54 31.54 0 0132 63"/></g><path d="M32 0C14.339 0 0 14.339 0 32a31.869 31.869 0 005.945 18.582l.05.066 5.677 5.68 1.414-1.414-5.543-5.545A29.839 29.839 0 012 32C2 15.42 15.42 2 32 2z"/><path d="M12 45v10H2v2h11l1-1V45z"/></svg>