<svg viewBox="0 0 64 64"><path d="M1 0L0 1v62l1 1h62l1-1V1l-1-1zm1 2h60v60H2z"/><path d="M1 0L0 1v62l1 1h62l1-1V1l-1-1zm1 2h60v60H2z"/><path d="M22 16c-3.302 0-6 2.698-6 6s2.698 6 6 6h4v8h-4c-3.302 0-6 2.698-6 6s2.698 6 6 6 6-2.698 6-6v-4h8v4c0 3.302 2.698 6 6 6s6-2.698 6-6-2.698-6-6-6h-4v-8h4c3.302 0 6-2.698 6-6s-2.698-6-6-6-6 2.698-6 6v4h-8v-4c0-3.302-2.698-6-6-6zm0 2c2.222 0 4 1.778 4 4v4h-4c-2.222 0-4-1.778-4-4s1.778-4 4-4zm20 0c2.222 0 4 1.778 4 4s-1.778 4-4 4h-4v-4c0-2.222 1.778-4 4-4zM28 28h8v8h-8zm-6 10h4v4c0 2.222-1.778 4-4 4s-4-1.778-4-4 1.778-4 4-4zm16 0h4c2.222 0 4 1.778 4 4s-1.778 4-4 4-4-1.778-4-4z"/></svg>