<svg viewBox="0 0 64 64"><path fill="none" stroke="#000" stroke-width="2" stroke-linejoin="bevel" stroke-miterlimit="10" d="M45.968 48.968l-14.001 14L18 49m0-34L32.032.968l14 14"/><path d="M31.969 25.969c-3.302 0-6 2.698-6 6s2.698 6 6 6 6-2.698 6-6-2.698-6-6-6zm0 2c2.22 0 4 1.779 4 4 0 2.22-1.78 4-4 4-2.221 0-4-1.78-4-4 0-2.221 1.779-4 4-4z"/><path fill="none" stroke="#000" stroke-width="2" stroke-linejoin="bevel" stroke-miterlimit="10" d="M49 18l14 14-14 14m-33.968-.032L1 31.935l13.968-13.967"/></svg>