<svg viewBox="0 0 64 64"><path d="M0 4v44h17v13.174L32.37 48H64V4zm2 2h60v40H31.63l-.28.24L19 56.826V46H2z"/><path d="M23 26c0 2.48.983 4.93 2.582 6.805C27.181 34.679 29.445 36 32 36h4v-2h-4c-1.863 0-3.6-.971-4.896-2.492C25.807 29.988 25 27.938 25 26z"/><path d="M33.8 30.4l-1.6 1.2 2.55 3.4-2.55 3.4 1.6 1.2 3-4v-1.2zM30 16v2h4c1.863 0 3.6.971 4.896 2.492C40.193 22.012 41 24.062 41 26h2c0-2.48-.983-4.93-2.582-6.805C38.819 17.321 36.555 16 34 16z"/><path d="M32.2 12.4l-3 4v1.2l3 4 1.6-1.2-2.55-3.4 2.55-3.4z"/></svg>