<svg viewBox="0 0 64 64"><path d="M32 20c-5.511 0-10 4.489-10 10s4.489 10 10 10 10-4.489 10-10-4.489-10-10-10zm0 2c4.43 0 8 3.57 8 8s-3.57 8-8 8-8-3.57-8-8 3.57-8 8-8z"/><path d="M26.541 23.127l-1.414 1.414 12.332 12.332 1.414-1.414z"/><path fill="none" stroke="#000" stroke-width="2" stroke-miterlimit="10" d="M11 1h42v62H11z"/><path d="M28 4v2h8V4zM11 50v2h42v-2zm0-42v2h42V8zm21 46c-1.645 0-3 1.355-3 3s1.355 3 3 3 3-1.355 3-3-1.355-3-3-3zm0 2c.564 0 1 .436 1 1 0 .564-.436 1-1 1-.564 0-1-.436-1-1 0-.564.436-1 1-1z"/></svg>