<svg viewBox="0 0 64 64"><path d="M34.066 13c-10.243 0-19.535 6.636-21.806 16h-.928C5.102 29 0 33.919 0 40c0 6.041 4.77 11 11 11h44c5.088 0 9-4.064 9-9 0-4.62-3.478-8.34-8.088-8.816C55.447 21.952 45.716 13 34.066 13zm0 2C44.957 15 54 23.529 54 34v1h1c4.042 0 7 3.1 7 7s-2.958 7-7 7H11c-5.184 0-9-3.995-9-9 0-4.965 4.148-9 9.332-9h2.492l.158-.809C15.68 21.458 24.411 15 34.066 15z"/><path d="M31.291 25.293l-8 8 1.414 1.414 7.293-7.293 7.293 7.293 1.414-1.414-8-8z"/><path fill="none" stroke="#000" stroke-width="2" stroke-miterlimit="10" d="M31.998 26v20"/></svg>