<svg viewBox="0 0 64 64"><path d="M23 22c0 2.48.983 4.93 2.582 6.805C27.181 30.679 29.445 32 32 32h4v-2h-4c-1.863 0-3.6-.971-4.896-2.492C25.807 25.988 25 23.938 25 22z"/><path d="M33.8 26.4l-1.6 1.2 2.55 3.4-2.55 3.4 1.6 1.2 3-4v-1.2zM30 12v2h4c1.863 0 3.6.971 4.896 2.492C40.193 18.012 41 20.062 41 22h2c0-2.48-.983-4.93-2.582-6.805C38.819 13.321 36.555 12 34 12z"/><path d="M32.2 8.4l-3 4v1.2l3 4 1.6-1.2-2.55-3.4 2.55-3.4z"/><g fill="none" stroke="#000" stroke-width="2" stroke-miterlimit="10"><path d="M1 26l31 19.434L63 26"/><path d="M11.334 21.667L1 26v37h62V26h0l-10.334-4.333"/><path d="M11 32V1h42v31"/></g></svg>