<svg viewBox="0 0 64 64"><path d="M0 6v52h64V6zm2 2h60v48H2z"/><path d="M23 37c0 2.48.983 4.93 2.582 6.805C27.181 45.679 29.445 47 32 47h4v-2h-4c-1.863 0-3.6-.971-4.896-2.492C25.807 40.988 25 38.938 25 37z"/><path d="M33.8 41.4l-1.6 1.2 2.55 3.4-2.55 3.4 1.6 1.2 3-4v-1.2zM30 27v2h4c1.863 0 3.6.971 4.896 2.492C40.193 33.012 41 35.062 41 37h2c0-2.48-.983-4.93-2.582-6.805C38.819 28.321 36.555 27 34 27z"/><path d="M32.2 23.4l-3 4v1.2l3 4 1.6-1.2-2.55-3.4 2.55-3.4zM1 14v2h62v-2zm5-4v2h4v-2zm8 0v2h4v-2zm8 0v2h4v-2z"/></svg>