<svg viewBox="0 0 64 64"><path d="M32 23c-3.661 0-6.794 2.895-7.742 6.188-.958.21-1.781.677-2.29 1.312-.641.803-.968 1.667-.968 2.5 0 1.167.307 2.221 1.043 2.957C22.779 36.693 23.833 37 25 37h14c1.12 0 2.161-.31 2.904-1.033C42.647 35.244 43 34.185 43 33c0-.833-.327-1.697-.969-2.5-.495-.619-1.293-1.072-2.217-1.295-.225-1.741-1.003-3.283-2.285-4.33C36.044 23.662 34.076 23 32 23zm0 2c1.647 0 3.18.538 4.264 1.424C37.348 27.31 38 28.5 38 30v1h1c.667 0 1.111.303 1.469.75.358.447.531 1.083.531 1.25 0 .815-.205 1.256-.49 1.533-.285.277-.743.467-1.51.467H25c-.833 0-1.279-.193-1.543-.457S23 33.833 23 33c0-.167.173-.803.531-1.25.358-.447.802-.75 1.469-.75h.824l.158-.809C26.466 27.7 29.308 25 32 25z"/><path fill="none" stroke="#000" stroke-width="2" stroke-miterlimit="10" d="M11 1h42v62H11z"/><path d="M28 4v2h8V4zM11 50v2h42v-2zm0-42v2h42V8zm21 46c-1.645 0-3 1.355-3 3s1.355 3 3 3 3-1.355 3-3-1.355-3-3-3zm0 2c.564 0 1 .436 1 1 0 .564-.436 1-1 1-.564 0-1-.436-1-1 0-.564.436-1 1-1z"/></svg>