<svg viewBox="0 0 64 64"><g fill="none" stroke="#000" stroke-width="2" stroke-miterlimit="10"><path d="M46 10H18m-6 0H1v48h62V10H52"/><path d="M12 6h6v8h-6zm34 0h6v8h-6z"/></g><path d="M1 17v2h62v-2zm31.012 10a1 1 0 00-.955.672L28.502 35H22a1 1 0 00-.555 1.832l5.383 3.588-1.91 6.289a1 1 0 001.504 1.129l5.57-3.637 5.387 3.63a1 1 0 001.523-1.099l-1.746-6.302 5.399-3.598A1 1 0 0042 35h-6.307l-2.757-7.352a1 1 0 00-.924-.648zm.023 3.94l2.03 5.412A1 1 0 0035 37h3.697l-3.252 2.168a1 1 0 00-.408 1.1l1.215 4.39-3.693-2.488a1 1 0 00-1.106-.008l-3.822 2.496 1.326-4.367a1 1 0 00-.402-1.123L25.303 37h3.91a1 1 0 00.945-.672z"/></svg>