<svg viewBox="0 0 64 64"><path d="M0 9v46h64V17H30.414l-8-8zm2 2h19.586l8 8H62v34H2z"/><path d="M27 27c-3.497 0-6 2.755-6 6 0 3.833 2.75 7.006 5.346 9.256s5.183 3.627 5.183 3.627l.471.25.47-.25s2.588-1.377 5.184-3.627S43 36.833 43 33c0-3.245-2.503-6-6-6-2.139 0-3.937 1.194-5 2.889C30.937 28.194 29.139 27 27 27zm0 2c2.222 0 4 1.778 4 4h2c0-2.222 1.778-4 4-4 2.503 0 4 1.72 4 4 0 2.833-2.25 5.66-4.654 7.744-2.17 1.88-3.941 2.82-4.346 3.043-.405-.223-2.177-1.163-4.346-3.043C25.25 38.66 23 35.833 23 33c0-2.28 1.497-4 4-4z"/></svg>