<svg viewBox="0 0 64 64"><path d="M23 38c0 2.48.983 4.93 2.582 6.805C27.181 46.679 29.445 48 32 48h4v-2h-4c-1.863 0-3.6-.971-4.896-2.492C25.807 41.988 25 39.938 25 38z"/><path d="M33.8 42.4l-1.6 1.2 2.55 3.4-2.55 3.4 1.6 1.2 3-4v-1.2zM30 28v2h4c1.863 0 3.6.971 4.896 2.492C40.193 34.012 41 36.062 41 38h2c0-2.48-.983-4.93-2.582-6.805C38.819 29.321 36.555 28 34 28z"/><path d="M32.2 24.4l-3 4v1.2l3 4 1.6-1.2-2.55-3.4 2.55-3.4z"/><g fill="none" stroke="#000" stroke-width="2" stroke-miterlimit="10"><path d="M46 10H18m-6 0H1v48h62V10H52"/><path d="M12 6h6v8h-6zm34 0h6v8h-6z"/></g><path d="M1 17v2h62v-2z"/></svg>