<svg viewBox="0 0 64 64"><path d="M34.066 13c-10.243 0-19.535 6.636-21.806 16h-.928C5.102 29 0 33.919 0 40c0 6.041 4.77 11 11 11h44c5.088 0 9-4.064 9-9 0-4.62-3.478-8.34-8.088-8.816C55.447 21.952 45.716 13 34.066 13zm0 2C44.957 15 54 23.529 54 34v1h1c4.042 0 7 3.1 7 7s-2.958 7-7 7H11c-5.184 0-9-3.995-9-9 0-4.965 4.148-9 9.332-9h2.492l.158-.809C15.68 21.458 24.411 15 34.066 15z"/><path d="M32 24c-5.511 0-10 4.489-10 10s4.489 10 10 10 10-4.489 10-10-4.489-10-10-10zm0 2c4.43 0 8 3.57 8 8s-3.57 8-8 8-8-3.57-8-8 3.57-8 8-8z"/><path d="M26.541 27.127l-1.414 1.414 12.332 12.332 1.414-1.414z"/></svg>