<svg viewBox="0 0 64 64"><g fill="none" stroke="#000" stroke-width="2" stroke-miterlimit="10"><path d="M46 10H18m-6 0H1v48h62V10H52"/><path d="M12 6h6v8h-6zm34 0h6v8h-6z"/></g><path d="M1 17v2h62v-2zm26 12c-3.497 0-6 2.755-6 6 0 3.833 2.75 7.006 5.346 9.256s5.183 3.627 5.183 3.627l.471.25.47-.25s2.588-1.377 5.184-3.627S43 38.833 43 35c0-3.245-2.503-6-6-6-2.139 0-3.937 1.194-5 2.889C30.937 30.194 29.139 29 27 29zm0 2c2.222 0 4 1.778 4 4h2c0-2.222 1.778-4 4-4 2.503 0 4 1.72 4 4 0 2.833-2.25 5.66-4.654 7.744-2.17 1.88-3.941 2.82-4.346 3.043-.405-.223-2.177-1.163-4.346-3.043C25.25 40.66 23 37.833 23 35c0-2.28 1.497-4 4-4z"/></svg>