<svg viewBox="0 0 64 64"><path d="M32 29c-3.661 0-6.794 2.895-7.742 6.188-.958.21-1.781.677-2.29 1.312-.641.803-.968 1.667-.968 2.5 0 1.167.307 2.221 1.043 2.957C22.779 42.693 23.833 43 25 43h14c1.12 0 2.161-.31 2.904-1.033C42.647 41.244 43 40.185 43 39c0-.833-.327-1.697-.969-2.5-.495-.619-1.293-1.072-2.217-1.295-.225-1.741-1.003-3.283-2.285-4.33C36.044 29.662 34.076 29 32 29zm0 2c1.647 0 3.18.538 4.264 1.424C37.348 33.31 38 34.5 38 36v1h1c.667 0 1.111.303 1.469.75.358.447.531 1.083.531 1.25 0 .815-.205 1.256-.49 1.533-.285.277-.743.467-1.51.467H25c-.833 0-1.279-.193-1.543-.457S23 39.833 23 39c0-.167.173-.803.531-1.25.358-.447.802-.75 1.469-.75h.824l.158-.809C26.466 33.7 29.308 31 32 31z"/><path d="M9 7v57h46V7H41v2h12v53H11V9h12V7z"/><path d="M27 0v4h-3.781l-2.5 10H43.28l-2.5-10H37V0zm2 2h6v4h4.219l1.5 6H23.28l1.5-6H29z"/></svg>