<svg viewBox="0 0 64 64"><g fill="none" stroke="#000" stroke-width="2" stroke-miterlimit="10"><path d="M1 26l31 19.434L63 26"/><path d="M11.334 21.667L1 26v37h62V26h0l-10.334-4.333"/><path d="M11 32V1h42v31"/></g><path d="M32.012 11a1 1 0 00-.955.672L28.502 19H22a1 1 0 00-.555 1.832l5.383 3.588-1.91 6.289a1 1 0 001.504 1.129l5.57-3.637 5.387 3.63a1 1 0 001.523-1.099l-1.746-6.302 5.399-3.598A1 1 0 0042 19h-6.307l-2.757-7.352a1 1 0 00-.924-.648zm.023 3.94l2.03 5.412A1 1 0 0035 21h3.697l-3.252 2.168a1 1 0 00-.408 1.1l1.215 4.39-3.693-2.488a1 1 0 00-1.106-.008l-3.822 2.496 1.326-4.367a1 1 0 00-.402-1.123L25.303 21h3.91a1 1 0 00.945-.672z"/></svg>