<svg viewBox="0 0 64 64"><path d="M10.139 0L4.012 40.852l1.976.296L11.861 2H52.14l5.873 39.148 1.976-.296L53.861 0z"/><path d="M4 40v24h56V40H42v1c0 5.535-4.465 10-10 10s-10-4.465-10-10v-1h-1zm2 2h14.203C20.738 48.125 25.74 53 32 53c6.261 0 11.262-4.875 11.797-11H58v20H6zm26.012-31a1 1 0 00-.955.672L28.502 19H22a1 1 0 00-.555 1.832l5.383 3.588-1.91 6.289a1 1 0 001.504 1.129l5.57-3.637 5.387 3.63a1 1 0 001.523-1.099l-1.746-6.302 5.399-3.598A1 1 0 0042 19h-6.307l-2.757-7.352a1 1 0 00-.924-.648zm.023 3.94l2.03 5.412A1 1 0 0035 21h3.697l-3.252 2.168a1 1 0 00-.408 1.1l1.215 4.39-3.693-2.488a1 1 0 00-1.106-.008l-3.822 2.496 1.326-4.367a1 1 0 00-.402-1.123L25.303 21h3.91a1 1 0 00.945-.672z"/></svg>