<svg viewBox="0 0 64 64"><path d="M9 7v57h46V7H41v2h12v53H11V9h12V7z"/><path d="M27 0v4h-3.781l-2.5 10H43.28l-2.5-10H37V0zm2 2h6v4h4.219l1.5 6H23.28l1.5-6H29zm3.012 23a1 1 0 00-.955.672L28.502 33H22a1 1 0 00-.555 1.832l5.383 3.588-1.91 6.289a1 1 0 001.504 1.129l5.57-3.637 5.387 3.63a1 1 0 001.523-1.099l-1.746-6.302 5.399-3.598A1 1 0 0042 33h-6.307l-2.757-7.352a1 1 0 00-.924-.648zm.023 3.94l2.03 5.412A1 1 0 0035 35h3.697l-3.252 2.168a1 1 0 00-.408 1.1l1.215 4.39-3.693-2.488a1 1 0 00-1.106-.008l-3.822 2.496 1.326-4.367a1 1 0 00-.402-1.123L25.303 35h3.91a1 1 0 00.945-.672z"/></svg>