<svg viewBox="0 0 64 64"><g fill="none" stroke="#000" stroke-width="2" stroke-miterlimit="10"><path d="M16 1h32v62H16zm12 4h8M16 51h32M16 9h32"/><circle stroke-linejoin="bevel" cx="32" cy="57" r="2"/></g><path d="M23 30c0 2.48.983 4.93 2.582 6.805C27.181 38.679 29.445 40 32 40h4v-2h-4c-1.863 0-3.6-.971-4.896-2.492C25.807 33.988 25 31.938 25 30z"/><path d="M33.8 34.4l-1.6 1.2 2.55 3.4-2.55 3.4 1.6 1.2 3-4v-1.2zM30 20v2h4c1.863 0 3.6.971 4.896 2.492C40.193 26.012 41 28.062 41 30h2c0-2.48-.983-4.93-2.582-6.805C38.819 21.321 36.555 20 34 20z"/><path d="M32.2 16.4l-3 4v1.2l3 4 1.6-1.2-2.55-3.4 2.55-3.4z"/></svg>