<svg viewBox="0 0 64 64"><g fill="none" stroke="#000" stroke-width="2" stroke-miterlimit="10"><path d="M1 26l31 19.434L63 26"/><path d="M11.334 21.667L1 26v37h62V26h0l-10.334-4.333"/><path d="M11 32V1h42v31"/></g><path d="M27 13c-3.497 0-6 2.755-6 6 0 3.833 2.75 7.006 5.346 9.256s5.183 3.627 5.183 3.627l.471.25.47-.25s2.588-1.377 5.184-3.627S43 22.833 43 19c0-3.245-2.503-6-6-6-2.139 0-3.937 1.194-5 2.889C30.937 14.194 29.139 13 27 13zm0 2c2.222 0 4 1.778 4 4h2c0-2.222 1.778-4 4-4 2.503 0 4 1.72 4 4 0 2.833-2.25 5.66-4.654 7.744-2.17 1.88-3.941 2.82-4.346 3.043-.405-.223-2.177-1.163-4.346-3.043C25.25 24.66 23 21.833 23 19c0-2.28 1.497-4 4-4z"/></svg>