<svg viewBox="0 0 64 64"><path fill="none" stroke="#000" stroke-width="2" stroke-miterlimit="10" d="M11 1h42v62H11z"/><path d="M27 21c-3.497 0-6 2.755-6 6 0 3.833 2.75 7.006 5.346 9.256s5.183 3.627 5.183 3.627l.471.25.47-.25s2.588-1.377 5.184-3.627S43 30.833 43 27c0-3.245-2.503-6-6-6-2.139 0-3.937 1.194-5 2.889C30.937 22.194 29.139 21 27 21zm0 2c2.222 0 4 1.778 4 4h2c0-2.222 1.778-4 4-4 2.503 0 4 1.72 4 4 0 2.833-2.25 5.66-4.654 7.744-2.17 1.88-3.941 2.82-4.346 3.043-.405-.223-2.177-1.163-4.346-3.043C25.25 32.66 23 29.833 23 27c0-2.28 1.497-4 4-4zm1-19v2h8V4zM11 50v2h42v-2zm0-42v2h42V8zm21 46c-1.645 0-3 1.355-3 3s1.355 3 3 3 3-1.355 3-3-1.355-3-3-3zm0 2c.564 0 1 .436 1 1 0 .564-.436 1-1 1-.564 0-1-.436-1-1 0-.564.436-1 1-1z"/></svg>