<svg viewBox="0 0 64 64"><g fill="none" stroke="#000" stroke-width="2" stroke-miterlimit="10"><path d="M22 23h20v14H22z"/><path d="M22 35l7-7 4 5 2-2 6 5"/></g><path d="M39 22c-2.197 0-4 1.803-4 4s1.803 4 4 4 4-1.803 4-4-1.803-4-4-4zm0 2c1.116 0 2 .884 2 2s-.884 2-2 2-2-.884-2-2 .884-2 2-2z"/><path fill="none" stroke="#000" stroke-width="2" stroke-miterlimit="10" d="M11 1h42v62H11z"/><path d="M28 4v2h8V4zM11 50v2h42v-2zm0-42v2h42V8zm21 46c-1.645 0-3 1.355-3 3s1.355 3 3 3 3-1.355 3-3-1.355-3-3-3zm0 2c.564 0 1 .436 1 1 0 .564-.436 1-1 1-.564 0-1-.436-1-1 0-.564.436-1 1-1z"/></svg>