<svg viewBox="0 0 64 64"><path d="M23 36c0 2.48.983 4.93 2.582 6.805C27.181 44.679 29.445 46 32 46h4v-2h-4c-1.863 0-3.6-.971-4.896-2.492C25.807 39.988 25 37.938 25 36z"/><path d="M33.8 40.4l-1.6 1.2 2.55 3.4-2.55 3.4 1.6 1.2 3-4v-1.2zM30 26v2h4c1.863 0 3.6.971 4.896 2.492C40.193 32.012 41 34.062 41 36h2c0-2.48-.983-4.93-2.582-6.805C38.819 27.321 36.555 26 34 26z"/><path d="M32.2 22.4l-3 4v1.2l3 4 1.6-1.2-2.55-3.4 2.55-3.4z"/><path d="M9 7v57h46V7H41v2h12v53H11V9h12V7z"/><path d="M27 0v4h-3.781l-2.5 10H43.28l-2.5-10H37V0zm2 2h6v4h4.219l1.5 6H23.28l1.5-6H29z"/></svg>