<svg viewBox="0 0 64 64"><path d="M10.139 0L4.012 40.852l1.976.296L11.861 2H52.14l5.873 39.148 1.976-.296L53.861 0z"/><path d="M4 40v24h56V40H42v1c0 5.535-4.465 10-10 10s-10-4.465-10-10v-1h-1zm2 2h14.203C20.738 48.125 25.74 53 32 53c6.261 0 11.262-4.875 11.797-11H58v20H6zm17-18c0 2.48.983 4.93 2.582 6.805C27.181 32.679 29.445 34 32 34h4v-2h-4c-1.863 0-3.6-.971-4.896-2.492C25.807 27.988 25 25.938 25 24z"/><path d="M33.8 28.4l-1.6 1.2 2.55 3.4-2.55 3.4 1.6 1.2 3-4v-1.2zM30 14v2h4c1.863 0 3.6.971 4.896 2.492C40.193 20.012 41 22.062 41 24h2c0-2.48-.983-4.93-2.582-6.805C38.819 15.321 36.555 14 34 14z"/><path d="M32.2 10.4l-3 4v1.2l3 4 1.6-1.2-2.55-3.4 2.55-3.4z"/></svg>