<svg viewBox="0 0 64 64"><path d="M0 0v64h64V0zm2 2h60v60H2z"/><path d="M52 6v10h6V6zm2 2h2v6h-2zM27.5 4C14.533 4 4 14.533 4 27.5S14.533 51 27.5 51 51 40.467 51 27.5 40.467 4 27.5 4zm0 2C39.386 6 49 15.614 49 27.5S39.386 49 27.5 49 6 39.386 6 27.5 15.614 6 27.5 6z"/><path d="M27.5 20.5c-3.854 0-7 3.146-7 7s3.146 7 7 7 7-3.146 7-7-3.146-7-7-7zm0 2c2.773 0 5 2.227 5 5s-2.227 5-5 5-5-2.227-5-5 2.227-5 5-5zM56 15v33h2V15z"/><path d="M56.553 44.105l-6 3L50 48v4l1.447.895 6-3L58 49v-4zM56 46.617v1.766l-4 2v-1.766zM4 55v5h8v-5zm2 2h4v1H6zm8-2v5h8v-5zm2 2h4v1h-4z"/></svg>