<svg viewBox="0 0 64 64"><path d="M0 21v40h64V21zm2 2h60v36H2z"/><path d="M20 27c-7.72 0-14 6.28-14 14s6.28 14 14 14 14-6.28 14-14-6.28-14-14-14zm0 2c6.64 0 12 5.36 12 12s-5.36 12-12 12S8 47.64 8 41s5.36-12 12-12z"/><path d="M8 35v2h24v-2zm0 10v2h24v-2z"/><path d="M24 29v24h2V29zm-10 0v24h2V29zm28-2v6h7v-6zm2 2h3v2h-3zm7-2v6h7v-6zm2 2h3v2h-3zm-1 14c-3.302 0-6 2.698-6 6s2.698 6 6 6 6-2.698 6-6-2.698-6-6-6zm0 2c2.221 0 4 1.779 4 4s-1.779 4-4 4-4-1.779-4-4 1.779-4 4-4z"/><path d="M51 44v4h2v-4zM2 17v5h2v-3h4v3h2v-5z"/><path d="M52.752 3.031L5 15.223V18h2v-1.223L53.248 4.97z"/></svg>