<svg viewBox="0 0 64 64"><path d="M5 54c-2.75 0-5 2.25-5 5s2.25 5 5 5 5-2.25 5-5-2.25-5-5-5zm0 2c1.669 0 3 1.331 3 3s-1.331 3-3 3-3-1.331-3-3 1.331-3 3-3zm17.293-27.707c-3.558 3.558-3.558 9.856 0 13.414 1.817 1.817 4.37 2.405 6.818 2.129 2.45-.276 4.855-1.388 6.596-3.129l-1.414-1.414c-1.383 1.383-3.416 2.333-5.404 2.557-1.99.224-3.875-.25-5.182-1.557-2.69-2.69-2.69-7.896 0-10.586z"/><path d="M50.293.293l-28 28 1.414 1.414 28-28zm12 11l-28 28 1.414 1.414 28-28zm-40 29l-15 15 1.414 1.414 15-15z"/></svg>