<svg viewBox="0 0 64 64"><path d="M17 62v2h30v-2zm14-20v20h2V42z"/><path d="M15 26c0 4.333 2.136 8.55 5.293 11.707S27.667 43 32 43c4.333 0 8.55-2.136 11.707-5.293S49 30.333 49 26h-2c0 3.667-1.864 7.45-4.707 10.293C39.45 39.136 35.667 41 32 41c-3.667 0-7.45-1.864-10.293-4.707C18.864 33.45 17 29.667 17 26z"/><path d="M32 0c-4.959 0-9 4.041-9 9v18c0 4.959 4.041 9 9 9s9-4.041 9-9V9c0-4.959-4.041-9-9-9zm0 2c3.877 0 7 3.123 7 7v18c0 3.877-3.123 7-7 7s-7-3.123-7-7V9c0-3.877 3.123-7 7-7z"/><path d="M24 12v2h5v-2zm0 10v2h5v-2zm11-10v2h5v-2zm0 10v2h5v-2z"/></svg>